<?xml version="1.0" encoding="utf-8" standalone="no"?>
<!DOCTYPE svg PUBLIC "-//W3C//DTD SVG 1.1//EN"
  "http://www.w3.org/Graphics/SVG/1.1/DTD/svg11.dtd">
<svg xmlns:xlink="http://www.w3.org/1999/xlink" width="344.16pt" height="344.16pt" viewBox="0 0 344.16 344.16" xmlns="http://www.w3.org/2000/svg" version="1.1">
 <metadata>
  <rdf:RDF xmlns:dc="http://purl.org/dc/elements/1.1/" xmlns:cc="http://creativecommons.org/ns#" xmlns:rdf="http://www.w3.org/1999/02/22-rdf-syntax-ns#">
   <cc:Work>
    <dc:type rdf:resource="http://purl.org/dc/dcmitype/StillImage"/>
    <dc:date>2024-08-11T17:17:24.068330</dc:date>
    <dc:format>image/svg+xml</dc:format>
    <dc:creator>
     <cc:Agent>
      <dc:title>Matplotlib v3.8.4, https://matplotlib.org/</dc:title>
     </cc:Agent>
    </dc:creator>
   </cc:Work>
  </rdf:RDF>
 </metadata>
 <defs>
  <style type="text/css">*{stroke-linejoin: round; stroke-linecap: butt}</style>
 </defs>
 <g id="figure_1">
  <g id="patch_1">
   <path d="M 0 344.16 
L 344.16 344.16 
L 344.16 0 
L 0 0 
z
" style="fill: #ffffff"/>
  </g>
  <g id="axes_1">
   <g id="patch_2">
    <path d="M 38.867537 301.16419 
L 336.96 301.16419 
L 336.96 7.2 
L 38.867537 7.2 
z
" style="fill: #ffffff"/>
   </g>
   <g id="PathCollection_1">
    <defs>
     <path id="m9e3f106ba9" d="M 0 0.707107 
C 0.187527 0.707107 0.367398 0.632602 0.5 0.5 
C 0.632602 0.367398 0.707107 0.187527 0.707107 0 
C 0.707107 -0.187527 0.632602 -0.367398 0.5 -0.5 
C 0.367398 -0.632602 0.187527 -0.707107 0 -0.707107 
C -0.187527 -0.707107 -0.367398 -0.632602 -0.5 -0.5 
C -0.632602 -0.367398 -0.707107 -0.187527 -0.707107 0 
C -0.707107 0.187527 -0.632602 0.367398 -0.5 0.5 
C -0.367398 0.632602 -0.187527 0.707107 0 0.707107 
z
" style="stroke: #000000"/>
    </defs>
    <g clip-path="url(#pfae497aac0)">
     <use xlink:href="#m9e3f106ba9" x="52.417194" y="193.632113" style="stroke: #000000"/>
     <use xlink:href="#m9e3f106ba9" x="52.417194" y="163.07256" style="stroke: #000000"/>
     <use xlink:href="#m9e3f106ba9" x="52.417194" y="252.565349" style="stroke: #000000"/>
     <use xlink:href="#m9e3f106ba9" x="52.417194" y="225.718454" style="stroke: #000000"/>
     <use xlink:href="#m9e3f106ba9" x="52.417194" y="167.998747" style="stroke: #000000"/>
     <use xlink:href="#m9e3f106ba9" x="52.417194" y="47.156524" style="stroke: #000000"/>
     <use xlink:href="#m9e3f106ba9" x="52.417194" y="240.887606" style="stroke: #000000"/>
     <use xlink:href="#m9e3f106ba9" x="52.417194" y="20.562009" style="stroke: #000000"/>
     <use xlink:href="#m9e3f106ba9" x="52.417194" y="229.635542" style="stroke: #000000"/>
     <use xlink:href="#m9e3f106ba9" x="52.417194" y="210.320198" style="stroke: #000000"/>
     <use xlink:href="#m9e3f106ba9" x="52.417194" y="243.257437" style="stroke: #000000"/>
     <use xlink:href="#m9e3f106ba9" x="52.417194" y="228.657118" style="stroke: #000000"/>
     <use xlink:href="#m9e3f106ba9" x="52.417194" y="134.028223" style="stroke: #000000"/>
     <use xlink:href="#m9e3f106ba9" x="52.417194" y="129.17627" style="stroke: #000000"/>
     <use xlink:href="#m9e3f106ba9" x="52.417194" y="198.359695" style="stroke: #000000"/>
     <use xlink:href="#m9e3f106ba9" x="52.417194" y="249.541364" style="stroke: #000000"/>
     <use xlink:href="#m9e3f106ba9" x="52.417194" y="148.588014" style="stroke: #000000"/>
     <use xlink:href="#m9e3f106ba9" x="52.417194" y="215.75016" style="stroke: #000000"/>
     <use xlink:href="#m9e3f106ba9" x="52.417194" y="239.954329" style="stroke: #000000"/>
     <use xlink:href="#m9e3f106ba9" x="52.417194" y="136.756729" style="stroke: #000000"/>
     <use xlink:href="#m9e3f106ba9" x="52.417194" y="163.396107" style="stroke: #000000"/>
     <use xlink:href="#m9e3f106ba9" x="52.417194" y="178.975957" style="stroke: #000000"/>
     <use xlink:href="#m9e3f106ba9" x="52.417194" y="44.867692" style="stroke: #000000"/>
     <use xlink:href="#m9e3f106ba9" x="52.417194" y="117.193905" style="stroke: #000000"/>
     <use xlink:href="#m9e3f106ba9" x="52.417194" y="99.484239" style="stroke: #000000"/>
     <use xlink:href="#m9e3f106ba9" x="52.417194" y="57.551105" style="stroke: #000000"/>
     <use xlink:href="#m9e3f106ba9" x="52.417194" y="152.241093" style="stroke: #000000"/>
     <use xlink:href="#m9e3f106ba9" x="52.417194" y="131.081833" style="stroke: #000000"/>
     <use xlink:href="#m9e3f106ba9" x="52.417194" y="150.180129" style="stroke: #000000"/>
     <use xlink:href="#m9e3f106ba9" x="52.417194" y="180.345944" style="stroke: #000000"/>
     <use xlink:href="#m9e3f106ba9" x="52.417194" y="115.685705" style="stroke: #000000"/>
     <use xlink:href="#m9e3f106ba9" x="52.417194" y="226.185471" style="stroke: #000000"/>
     <use xlink:href="#m9e3f106ba9" x="52.417194" y="255.505822" style="stroke: #000000"/>
     <use xlink:href="#m9e3f106ba9" x="52.417194" y="253.616879" style="stroke: #000000"/>
     <use xlink:href="#m9e3f106ba9" x="52.417194" y="154.974256" style="stroke: #000000"/>
     <use xlink:href="#m9e3f106ba9" x="52.417194" y="143.767676" style="stroke: #000000"/>
     <use xlink:href="#m9e3f106ba9" x="52.417194" y="162.001184" style="stroke: #000000"/>
     <use xlink:href="#m9e3f106ba9" x="52.417194" y="268.611985" style="stroke: #000000"/>
     <use xlink:href="#m9e3f106ba9" x="52.417194" y="225.80059" style="stroke: #000000"/>
     <use xlink:href="#m9e3f106ba9" x="52.417194" y="268.195328" style="stroke: #000000"/>
    </g>
   </g>
   <g id="PathCollection_2">
    <g clip-path="url(#pfae497aac0)">
     <use xlink:href="#m9e3f106ba9" x="106.615824" y="205.874036" style="stroke: #000000"/>
     <use xlink:href="#m9e3f106ba9" x="106.615824" y="265.639365" style="stroke: #000000"/>
     <use xlink:href="#m9e3f106ba9" x="106.615824" y="276.186863" style="stroke: #000000"/>
     <use xlink:href="#m9e3f106ba9" x="106.615824" y="256.677993" style="stroke: #000000"/>
     <use xlink:href="#m9e3f106ba9" x="106.615824" y="262.666639" style="stroke: #000000"/>
     <use xlink:href="#m9e3f106ba9" x="106.615824" y="212.149491" style="stroke: #000000"/>
     <use xlink:href="#m9e3f106ba9" x="106.615824" y="252.229424" style="stroke: #000000"/>
     <use xlink:href="#m9e3f106ba9" x="106.615824" y="233.437223" style="stroke: #000000"/>
     <use xlink:href="#m9e3f106ba9" x="106.615824" y="258.342548" style="stroke: #000000"/>
     <use xlink:href="#m9e3f106ba9" x="106.615824" y="75.044651" style="stroke: #000000"/>
     <use xlink:href="#m9e3f106ba9" x="106.615824" y="254.381453" style="stroke: #000000"/>
     <use xlink:href="#m9e3f106ba9" x="106.615824" y="248.888191" style="stroke: #000000"/>
     <use xlink:href="#m9e3f106ba9" x="106.615824" y="182.27127" style="stroke: #000000"/>
     <use xlink:href="#m9e3f106ba9" x="106.615824" y="215.00165" style="stroke: #000000"/>
     <use xlink:href="#m9e3f106ba9" x="106.615824" y="203.219734" style="stroke: #000000"/>
     <use xlink:href="#m9e3f106ba9" x="106.615824" y="236.301918" style="stroke: #000000"/>
     <use xlink:href="#m9e3f106ba9" x="106.615824" y="216.840172" style="stroke: #000000"/>
     <use xlink:href="#m9e3f106ba9" x="106.615824" y="246.574556" style="stroke: #000000"/>
     <use xlink:href="#m9e3f106ba9" x="106.615824" y="234.141806" style="stroke: #000000"/>
     <use xlink:href="#m9e3f106ba9" x="106.615824" y="277.879421" style="stroke: #000000"/>
     <use xlink:href="#m9e3f106ba9" x="106.615824" y="227.062581" style="stroke: #000000"/>
     <use xlink:href="#m9e3f106ba9" x="106.615824" y="229.575959" style="stroke: #000000"/>
     <use xlink:href="#m9e3f106ba9" x="106.615824" y="166.117236" style="stroke: #000000"/>
     <use xlink:href="#m9e3f106ba9" x="106.615824" y="147.184148" style="stroke: #000000"/>
     <use xlink:href="#m9e3f106ba9" x="106.615824" y="142.028988" style="stroke: #000000"/>
     <use xlink:href="#m9e3f106ba9" x="106.615824" y="215.025765" style="stroke: #000000"/>
     <use xlink:href="#m9e3f106ba9" x="106.615824" y="73.619815" style="stroke: #000000"/>
     <use xlink:href="#m9e3f106ba9" x="106.615824" y="180.163571" style="stroke: #000000"/>
     <use xlink:href="#m9e3f106ba9" x="106.615824" y="220.675924" style="stroke: #000000"/>
     <use xlink:href="#m9e3f106ba9" x="106.615824" y="213.850107" style="stroke: #000000"/>
     <use xlink:href="#m9e3f106ba9" x="106.615824" y="247.390359" style="stroke: #000000"/>
     <use xlink:href="#m9e3f106ba9" x="106.615824" y="269.755543" style="stroke: #000000"/>
     <use xlink:href="#m9e3f106ba9" x="106.615824" y="239.933057" style="stroke: #000000"/>
     <use xlink:href="#m9e3f106ba9" x="106.615824" y="214.382993" style="stroke: #000000"/>
     <use xlink:href="#m9e3f106ba9" x="106.615824" y="226.634726" style="stroke: #000000"/>
     <use xlink:href="#m9e3f106ba9" x="106.615824" y="207.129323" style="stroke: #000000"/>
     <use xlink:href="#m9e3f106ba9" x="106.615824" y="169.090544" style="stroke: #000000"/>
     <use xlink:href="#m9e3f106ba9" x="106.615824" y="267.679143" style="stroke: #000000"/>
     <use xlink:href="#m9e3f106ba9" x="106.615824" y="234.849488" style="stroke: #000000"/>
     <use xlink:href="#m9e3f106ba9" x="106.615824" y="275.86033" style="stroke: #000000"/>
    </g>
   </g>
   <g id="PathCollection_3">
    <g clip-path="url(#pfae497aac0)">
     <use xlink:href="#m9e3f106ba9" x="160.814454" y="189.725072" style="stroke: #000000"/>
     <use xlink:href="#m9e3f106ba9" x="160.814454" y="256.485863" style="stroke: #000000"/>
     <use xlink:href="#m9e3f106ba9" x="160.814454" y="279.332421" style="stroke: #000000"/>
     <use xlink:href="#m9e3f106ba9" x="160.814454" y="259.301478" style="stroke: #000000"/>
     <use xlink:href="#m9e3f106ba9" x="160.814454" y="245.862894" style="stroke: #000000"/>
     <use xlink:href="#m9e3f106ba9" x="160.814454" y="218.096716" style="stroke: #000000"/>
     <use xlink:href="#m9e3f106ba9" x="160.814454" y="280.475784" style="stroke: #000000"/>
     <use xlink:href="#m9e3f106ba9" x="160.814454" y="270.515598" style="stroke: #000000"/>
     <use xlink:href="#m9e3f106ba9" x="160.814454" y="239.916506" style="stroke: #000000"/>
     <use xlink:href="#m9e3f106ba9" x="160.814454" y="161.283413" style="stroke: #000000"/>
     <use xlink:href="#m9e3f106ba9" x="160.814454" y="241.81035" style="stroke: #000000"/>
     <use xlink:href="#m9e3f106ba9" x="160.814454" y="224.708523" style="stroke: #000000"/>
     <use xlink:href="#m9e3f106ba9" x="160.814454" y="242.419353" style="stroke: #000000"/>
     <use xlink:href="#m9e3f106ba9" x="160.814454" y="258.96176" style="stroke: #000000"/>
     <use xlink:href="#m9e3f106ba9" x="160.814454" y="264.474713" style="stroke: #000000"/>
     <use xlink:href="#m9e3f106ba9" x="160.814454" y="238.275008" style="stroke: #000000"/>
     <use xlink:href="#m9e3f106ba9" x="160.814454" y="197.095047" style="stroke: #000000"/>
     <use xlink:href="#m9e3f106ba9" x="160.814454" y="251.839844" style="stroke: #000000"/>
     <use xlink:href="#m9e3f106ba9" x="160.814454" y="252.470149" style="stroke: #000000"/>
     <use xlink:href="#m9e3f106ba9" x="160.814454" y="268.449039" style="stroke: #000000"/>
     <use xlink:href="#m9e3f106ba9" x="160.814454" y="250.123801" style="stroke: #000000"/>
     <use xlink:href="#m9e3f106ba9" x="160.814454" y="261.625085" style="stroke: #000000"/>
     <use xlink:href="#m9e3f106ba9" x="160.814454" y="274.940373" style="stroke: #000000"/>
     <use xlink:href="#m9e3f106ba9" x="160.814454" y="208.864112" style="stroke: #000000"/>
     <use xlink:href="#m9e3f106ba9" x="160.814454" y="216.338966" style="stroke: #000000"/>
     <use xlink:href="#m9e3f106ba9" x="160.814454" y="279.022464" style="stroke: #000000"/>
     <use xlink:href="#m9e3f106ba9" x="160.814454" y="251.52586" style="stroke: #000000"/>
     <use xlink:href="#m9e3f106ba9" x="160.814454" y="205.304092" style="stroke: #000000"/>
     <use xlink:href="#m9e3f106ba9" x="160.814454" y="185.994333" style="stroke: #000000"/>
     <use xlink:href="#m9e3f106ba9" x="160.814454" y="224.64156" style="stroke: #000000"/>
     <use xlink:href="#m9e3f106ba9" x="160.814454" y="221.566978" style="stroke: #000000"/>
     <use xlink:href="#m9e3f106ba9" x="160.814454" y="276.958726" style="stroke: #000000"/>
     <use xlink:href="#m9e3f106ba9" x="160.814454" y="240.690674" style="stroke: #000000"/>
     <use xlink:href="#m9e3f106ba9" x="160.814454" y="247.328231" style="stroke: #000000"/>
     <use xlink:href="#m9e3f106ba9" x="160.814454" y="242.708786" style="stroke: #000000"/>
     <use xlink:href="#m9e3f106ba9" x="160.814454" y="269.961931" style="stroke: #000000"/>
     <use xlink:href="#m9e3f106ba9" x="160.814454" y="273.118517" style="stroke: #000000"/>
     <use xlink:href="#m9e3f106ba9" x="160.814454" y="274.264112" style="stroke: #000000"/>
     <use xlink:href="#m9e3f106ba9" x="160.814454" y="247.729537" style="stroke: #000000"/>
     <use xlink:href="#m9e3f106ba9" x="160.814454" y="245.872704" style="stroke: #000000"/>
    </g>
   </g>
   <g id="PathCollection_4">
    <g clip-path="url(#pfae497aac0)">
     <use xlink:href="#m9e3f106ba9" x="215.013083" y="230.378579" style="stroke: #000000"/>
     <use xlink:href="#m9e3f106ba9" x="215.013083" y="271.913529" style="stroke: #000000"/>
     <use xlink:href="#m9e3f106ba9" x="215.013083" y="238.12983" style="stroke: #000000"/>
     <use xlink:href="#m9e3f106ba9" x="215.013083" y="271.922455" style="stroke: #000000"/>
     <use xlink:href="#m9e3f106ba9" x="215.013083" y="265.946972" style="stroke: #000000"/>
     <use xlink:href="#m9e3f106ba9" x="215.013083" y="232.80101" style="stroke: #000000"/>
     <use xlink:href="#m9e3f106ba9" x="215.013083" y="270.24147" style="stroke: #000000"/>
     <use xlink:href="#m9e3f106ba9" x="215.013083" y="239.621655" style="stroke: #000000"/>
     <use xlink:href="#m9e3f106ba9" x="215.013083" y="257.99062" style="stroke: #000000"/>
     <use xlink:href="#m9e3f106ba9" x="215.013083" y="184.234639" style="stroke: #000000"/>
     <use xlink:href="#m9e3f106ba9" x="215.013083" y="276.491451" style="stroke: #000000"/>
     <use xlink:href="#m9e3f106ba9" x="215.013083" y="265.071368" style="stroke: #000000"/>
     <use xlink:href="#m9e3f106ba9" x="215.013083" y="240.467544" style="stroke: #000000"/>
     <use xlink:href="#m9e3f106ba9" x="215.013083" y="264.703739" style="stroke: #000000"/>
     <use xlink:href="#m9e3f106ba9" x="215.013083" y="237.658136" style="stroke: #000000"/>
     <use xlink:href="#m9e3f106ba9" x="215.013083" y="275.2207" style="stroke: #000000"/>
     <use xlink:href="#m9e3f106ba9" x="215.013083" y="253.191302" style="stroke: #000000"/>
     <use xlink:href="#m9e3f106ba9" x="215.013083" y="275.857018" style="stroke: #000000"/>
     <use xlink:href="#m9e3f106ba9" x="215.013083" y="238.833267" style="stroke: #000000"/>
     <use xlink:href="#m9e3f106ba9" x="215.013083" y="279.529531" style="stroke: #000000"/>
     <use xlink:href="#m9e3f106ba9" x="215.013083" y="257.493908" style="stroke: #000000"/>
     <use xlink:href="#m9e3f106ba9" x="215.013083" y="207.812383" style="stroke: #000000"/>
     <use xlink:href="#m9e3f106ba9" x="215.013083" y="273.590421" style="stroke: #000000"/>
     <use xlink:href="#m9e3f106ba9" x="215.013083" y="269.048054" style="stroke: #000000"/>
     <use xlink:href="#m9e3f106ba9" x="215.013083" y="259.562459" style="stroke: #000000"/>
     <use xlink:href="#m9e3f106ba9" x="215.013083" y="269.295071" style="stroke: #000000"/>
     <use xlink:href="#m9e3f106ba9" x="215.013083" y="259.71702" style="stroke: #000000"/>
     <use xlink:href="#m9e3f106ba9" x="215.013083" y="257.567895" style="stroke: #000000"/>
     <use xlink:href="#m9e3f106ba9" x="215.013083" y="226.153116" style="stroke: #000000"/>
     <use xlink:href="#m9e3f106ba9" x="215.013083" y="251.11761" style="stroke: #000000"/>
     <use xlink:href="#m9e3f106ba9" x="215.013083" y="270.105946" style="stroke: #000000"/>
     <use xlink:href="#m9e3f106ba9" x="215.013083" y="252.943372" style="stroke: #000000"/>
     <use xlink:href="#m9e3f106ba9" x="215.013083" y="243.525777" style="stroke: #000000"/>
     <use xlink:href="#m9e3f106ba9" x="215.013083" y="262.498098" style="stroke: #000000"/>
     <use xlink:href="#m9e3f106ba9" x="215.013083" y="252.918604" style="stroke: #000000"/>
     <use xlink:href="#m9e3f106ba9" x="215.013083" y="281.48508" style="stroke: #000000"/>
     <use xlink:href="#m9e3f106ba9" x="215.013083" y="276.928225" style="stroke: #000000"/>
     <use xlink:href="#m9e3f106ba9" x="215.013083" y="272.110666" style="stroke: #000000"/>
     <use xlink:href="#m9e3f106ba9" x="215.013083" y="258.401333" style="stroke: #000000"/>
     <use xlink:href="#m9e3f106ba9" x="215.013083" y="246.8906" style="stroke: #000000"/>
    </g>
   </g>
   <g id="PathCollection_5">
    <g clip-path="url(#pfae497aac0)">
     <use xlink:href="#m9e3f106ba9" x="269.211713" y="272.683794" style="stroke: #000000"/>
     <use xlink:href="#m9e3f106ba9" x="269.211713" y="275.775197" style="stroke: #000000"/>
     <use xlink:href="#m9e3f106ba9" x="269.211713" y="256.273552" style="stroke: #000000"/>
     <use xlink:href="#m9e3f106ba9" x="269.211713" y="271.709148" style="stroke: #000000"/>
     <use xlink:href="#m9e3f106ba9" x="269.211713" y="280.698685" style="stroke: #000000"/>
     <use xlink:href="#m9e3f106ba9" x="269.211713" y="256.142739" style="stroke: #000000"/>
     <use xlink:href="#m9e3f106ba9" x="269.211713" y="279.851997" style="stroke: #000000"/>
     <use xlink:href="#m9e3f106ba9" x="269.211713" y="261.984738" style="stroke: #000000"/>
     <use xlink:href="#m9e3f106ba9" x="269.211713" y="279.683942" style="stroke: #000000"/>
     <use xlink:href="#m9e3f106ba9" x="269.211713" y="212.353993" style="stroke: #000000"/>
     <use xlink:href="#m9e3f106ba9" x="269.211713" y="270.184326" style="stroke: #000000"/>
     <use xlink:href="#m9e3f106ba9" x="269.211713" y="275.404547" style="stroke: #000000"/>
     <use xlink:href="#m9e3f106ba9" x="269.211713" y="246.39865" style="stroke: #000000"/>
     <use xlink:href="#m9e3f106ba9" x="269.211713" y="237.810461" style="stroke: #000000"/>
     <use xlink:href="#m9e3f106ba9" x="269.211713" y="273.040449" style="stroke: #000000"/>
     <use xlink:href="#m9e3f106ba9" x="269.211713" y="276.042068" style="stroke: #000000"/>
     <use xlink:href="#m9e3f106ba9" x="269.211713" y="276.322857" style="stroke: #000000"/>
     <use xlink:href="#m9e3f106ba9" x="269.211713" y="278.67491" style="stroke: #000000"/>
     <use xlink:href="#m9e3f106ba9" x="269.211713" y="240.998675" style="stroke: #000000"/>
     <use xlink:href="#m9e3f106ba9" x="269.211713" y="259.582559" style="stroke: #000000"/>
     <use xlink:href="#m9e3f106ba9" x="269.211713" y="281.407035" style="stroke: #000000"/>
     <use xlink:href="#m9e3f106ba9" x="269.211713" y="260.156394" style="stroke: #000000"/>
     <use xlink:href="#m9e3f106ba9" x="269.211713" y="267.400298" style="stroke: #000000"/>
     <use xlink:href="#m9e3f106ba9" x="269.211713" y="271.653324" style="stroke: #000000"/>
     <use xlink:href="#m9e3f106ba9" x="269.211713" y="268.903973" style="stroke: #000000"/>
     <use xlink:href="#m9e3f106ba9" x="269.211713" y="280.171965" style="stroke: #000000"/>
     <use xlink:href="#m9e3f106ba9" x="269.211713" y="280.235013" style="stroke: #000000"/>
     <use xlink:href="#m9e3f106ba9" x="269.211713" y="247.81978" style="stroke: #000000"/>
     <use xlink:href="#m9e3f106ba9" x="269.211713" y="272.325481" style="stroke: #000000"/>
     <use xlink:href="#m9e3f106ba9" x="269.211713" y="262.115416" style="stroke: #000000"/>
     <use xlink:href="#m9e3f106ba9" x="269.211713" y="278.358623" style="stroke: #000000"/>
     <use xlink:href="#m9e3f106ba9" x="269.211713" y="231.57628" style="stroke: #000000"/>
     <use xlink:href="#m9e3f106ba9" x="269.211713" y="255.70174" style="stroke: #000000"/>
     <use xlink:href="#m9e3f106ba9" x="269.211713" y="267.329708" style="stroke: #000000"/>
     <use xlink:href="#m9e3f106ba9" x="269.211713" y="270.270031" style="stroke: #000000"/>
     <use xlink:href="#m9e3f106ba9" x="269.211713" y="281.724419" style="stroke: #000000"/>
     <use xlink:href="#m9e3f106ba9" x="269.211713" y="277.362902" style="stroke: #000000"/>
     <use xlink:href="#m9e3f106ba9" x="269.211713" y="277.954668" style="stroke: #000000"/>
     <use xlink:href="#m9e3f106ba9" x="269.211713" y="275.703705" style="stroke: #000000"/>
     <use xlink:href="#m9e3f106ba9" x="269.211713" y="275.639702" style="stroke: #000000"/>
    </g>
   </g>
   <g id="PathCollection_6">
    <g clip-path="url(#pfae497aac0)">
     <use xlink:href="#m9e3f106ba9" x="323.410343" y="281.021588" style="stroke: #000000"/>
     <use xlink:href="#m9e3f106ba9" x="323.410343" y="277.298768" style="stroke: #000000"/>
     <use xlink:href="#m9e3f106ba9" x="323.410343" y="272.418911" style="stroke: #000000"/>
     <use xlink:href="#m9e3f106ba9" x="323.410343" y="278.398781" style="stroke: #000000"/>
     <use xlink:href="#m9e3f106ba9" x="323.410343" y="282.209965" style="stroke: #000000"/>
     <use xlink:href="#m9e3f106ba9" x="323.410343" y="280.472074" style="stroke: #000000"/>
     <use xlink:href="#m9e3f106ba9" x="323.410343" y="279.545095" style="stroke: #000000"/>
     <use xlink:href="#m9e3f106ba9" x="323.410343" y="282.302581" style="stroke: #000000"/>
     <use xlink:href="#m9e3f106ba9" x="323.410343" y="276.909278" style="stroke: #000000"/>
     <use xlink:href="#m9e3f106ba9" x="323.410343" y="248.975413" style="stroke: #000000"/>
     <use xlink:href="#m9e3f106ba9" x="323.410343" y="281.213244" style="stroke: #000000"/>
     <use xlink:href="#m9e3f106ba9" x="323.410343" y="280.554232" style="stroke: #000000"/>
     <use xlink:href="#m9e3f106ba9" x="323.410343" y="268.515934" style="stroke: #000000"/>
     <use xlink:href="#m9e3f106ba9" x="323.410343" y="276.787349" style="stroke: #000000"/>
     <use xlink:href="#m9e3f106ba9" x="323.410343" y="274.777434" style="stroke: #000000"/>
     <use xlink:href="#m9e3f106ba9" x="323.410343" y="277.346246" style="stroke: #000000"/>
     <use xlink:href="#m9e3f106ba9" x="323.410343" y="280.240677" style="stroke: #000000"/>
     <use xlink:href="#m9e3f106ba9" x="323.410343" y="283.291126" style="stroke: #000000"/>
     <use xlink:href="#m9e3f106ba9" x="323.410343" y="265.82564" style="stroke: #000000"/>
     <use xlink:href="#m9e3f106ba9" x="323.410343" y="280.018097" style="stroke: #000000"/>
     <use xlink:href="#m9e3f106ba9" x="323.410343" y="279.035977" style="stroke: #000000"/>
     <use xlink:href="#m9e3f106ba9" x="323.410343" y="267.172615" style="stroke: #000000"/>
     <use xlink:href="#m9e3f106ba9" x="323.410343" y="280.884672" style="stroke: #000000"/>
     <use xlink:href="#m9e3f106ba9" x="323.410343" y="276.162374" style="stroke: #000000"/>
     <use xlink:href="#m9e3f106ba9" x="323.410343" y="261.854486" style="stroke: #000000"/>
     <use xlink:href="#m9e3f106ba9" x="323.410343" y="281.495105" style="stroke: #000000"/>
     <use xlink:href="#m9e3f106ba9" x="323.410343" y="281.377345" style="stroke: #000000"/>
     <use xlink:href="#m9e3f106ba9" x="323.410343" y="255.819328" style="stroke: #000000"/>
     <use xlink:href="#m9e3f106ba9" x="323.410343" y="273.658659" style="stroke: #000000"/>
     <use xlink:href="#m9e3f106ba9" x="323.410343" y="277.531463" style="stroke: #000000"/>
     <use xlink:href="#m9e3f106ba9" x="323.410343" y="277.121293" style="stroke: #000000"/>
     <use xlink:href="#m9e3f106ba9" x="323.410343" y="262.366628" style="stroke: #000000"/>
     <use xlink:href="#m9e3f106ba9" x="323.410343" y="281.93779" style="stroke: #000000"/>
     <use xlink:href="#m9e3f106ba9" x="323.410343" y="274.716682" style="stroke: #000000"/>
     <use xlink:href="#m9e3f106ba9" x="323.410343" y="271.314074" style="stroke: #000000"/>
     <use xlink:href="#m9e3f106ba9" x="323.410343" y="279.662902" style="stroke: #000000"/>
     <use xlink:href="#m9e3f106ba9" x="323.410343" y="277.592176" style="stroke: #000000"/>
     <use xlink:href="#m9e3f106ba9" x="323.410343" y="282.598214" style="stroke: #000000"/>
     <use xlink:href="#m9e3f106ba9" x="323.410343" y="283.155323" style="stroke: #000000"/>
     <use xlink:href="#m9e3f106ba9" x="323.410343" y="276.906206" style="stroke: #000000"/>
    </g>
   </g>
   <g id="PathCollection_7">
    <defs>
     <path id="m6b9e7442d1" d="M -3 3 
L 3 3 
L 3 -3 
L -3 -3 
z
" style="stroke: #000000"/>
    </defs>
    <g clip-path="url(#pfae497aac0)">
     <use xlink:href="#m6b9e7442d1" x="52.417194" y="164.38286" style="stroke: #000000"/>
     <use xlink:href="#m6b9e7442d1" x="106.615824" y="213.053444" style="stroke: #000000"/>
     <use xlink:href="#m6b9e7442d1" x="160.814454" y="241.365375" style="stroke: #000000"/>
     <use xlink:href="#m6b9e7442d1" x="215.013083" y="254.392296" style="stroke: #000000"/>
     <use xlink:href="#m6b9e7442d1" x="269.211713" y="266.00361" style="stroke: #000000"/>
     <use xlink:href="#m6b9e7442d1" x="323.410343" y="275.609963" style="stroke: #000000"/>
    </g>
   </g>
   <g id="matplotlib.axis_1">
    <g id="xtick_1">
     <g id="line2d_1">
      <defs>
       <path id="meddd15c5b5" d="M 0 0 
L 0 3.5 
" style="stroke: #000000; stroke-width: 0.8"/>
      </defs>
      <g>
       <use xlink:href="#meddd15c5b5" x="52.417194" y="301.16419" style="stroke: #000000; stroke-width: 0.8"/>
      </g>
     </g>
     <g id="text_1">
      <!-- $\mathdefault{2^{6}}$ -->
      <g transform="translate(46.494337 317.850067) scale(0.14 -0.14)">
       <defs>
        <path id="CMR17-32" d="M 2669 990 
L 2554 990 
C 2490 537 2438 460 2413 422 
C 2381 371 1920 371 1830 371 
L 602 371 
C 832 620 1280 1073 1824 1596 
C 2214 1966 2669 2400 2669 3033 
C 2669 3788 2067 4224 1395 4224 
C 691 4224 262 3603 262 3027 
C 262 2777 448 2745 525 2745 
C 589 2745 781 2783 781 3007 
C 781 3206 614 3264 525 3264 
C 486 3264 448 3257 422 3244 
C 544 3788 915 4057 1306 4057 
C 1862 4057 2227 3616 2227 3033 
C 2227 2477 1901 1998 1536 1583 
L 262 147 
L 262 0 
L 2515 0 
L 2669 990 
z
" transform="scale(0.015625)"/>
        <path id="CMR17-36" d="M 678 2198 
C 678 3712 1395 4076 1811 4076 
C 1946 4076 2272 4049 2400 3782 
C 2298 3782 2106 3782 2106 3558 
C 2106 3385 2246 3328 2336 3328 
C 2394 3328 2566 3353 2566 3571 
C 2566 3987 2246 4224 1805 4224 
C 1043 4224 243 3411 243 2011 
C 243 257 966 -128 1478 -128 
C 2099 -128 2688 431 2688 1295 
C 2688 2101 2170 2688 1517 2688 
C 1126 2688 838 2430 678 1979 
L 678 2198 
z
M 1478 25 
C 691 25 691 1212 691 1450 
C 691 1914 909 2585 1504 2585 
C 1613 2585 1926 2585 2138 2140 
C 2253 1889 2253 1624 2253 1302 
C 2253 954 2253 696 2118 438 
C 1978 173 1773 25 1478 25 
z
" transform="scale(0.015625)"/>
       </defs>
       <use xlink:href="#CMR17-32" transform="scale(0.996264)"/>
       <use xlink:href="#CMR17-36" transform="translate(45.690477 36.153639) scale(0.697382)"/>
      </g>
     </g>
    </g>
    <g id="xtick_2">
     <g id="line2d_2">
      <g>
       <use xlink:href="#meddd15c5b5" x="106.615824" y="301.16419" style="stroke: #000000; stroke-width: 0.8"/>
      </g>
     </g>
     <g id="text_2">
      <!-- $\mathdefault{2^{7}}$ -->
      <g transform="translate(100.692966 317.850067) scale(0.14 -0.14)">
       <defs>
        <path id="CMR17-37" d="M 2886 3955 
L 2886 4096 
L 1382 4096 
C 634 4096 621 4166 595 4288 
L 480 4288 
L 294 3104 
L 410 3104 
C 429 3226 474 3552 550 3673 
C 589 3724 1062 3724 1171 3724 
L 2579 3724 
L 1869 2670 
C 1395 1961 1069 1003 1069 166 
C 1069 89 1069 -128 1299 -128 
C 1530 -128 1530 89 1530 172 
L 1530 466 
C 1530 1514 1709 2204 2003 2644 
L 2886 3955 
z
" transform="scale(0.015625)"/>
       </defs>
       <use xlink:href="#CMR17-32" transform="scale(0.996264)"/>
       <use xlink:href="#CMR17-37" transform="translate(45.690477 36.153639) scale(0.697382)"/>
      </g>
     </g>
    </g>
    <g id="xtick_3">
     <g id="line2d_3">
      <g>
       <use xlink:href="#meddd15c5b5" x="160.814454" y="301.16419" style="stroke: #000000; stroke-width: 0.8"/>
      </g>
     </g>
     <g id="text_3">
      <!-- $\mathdefault{2^{8}}$ -->
      <g transform="translate(154.891596 317.850067) scale(0.14 -0.14)">
       <defs>
        <path id="CMR17-38" d="M 1741 2289 
C 2144 2494 2554 2803 2554 3298 
C 2554 3884 1990 4224 1472 4224 
C 890 4224 378 3800 378 3215 
C 378 3054 416 2777 666 2533 
C 730 2469 998 2276 1171 2154 
C 883 2006 211 1652 211 945 
C 211 282 838 -128 1459 -128 
C 2144 -128 2720 366 2720 1022 
C 2720 1607 2330 1877 2074 2051 
L 1741 2289 
z
M 902 2855 
C 851 2887 595 3086 595 3388 
C 595 3781 998 4076 1459 4076 
C 1965 4076 2336 3716 2336 3298 
C 2336 2700 1670 2359 1638 2359 
C 1632 2359 1626 2359 1574 2398 
L 902 2855 
z
M 2080 1536 
C 2176 1466 2483 1253 2483 861 
C 2483 385 2010 25 1472 25 
C 890 25 448 443 448 951 
C 448 1459 838 1884 1280 2083 
L 2080 1536 
z
" transform="scale(0.015625)"/>
       </defs>
       <use xlink:href="#CMR17-32" transform="scale(0.996264)"/>
       <use xlink:href="#CMR17-38" transform="translate(45.690477 36.153639) scale(0.697382)"/>
      </g>
     </g>
    </g>
    <g id="xtick_4">
     <g id="line2d_4">
      <g>
       <use xlink:href="#meddd15c5b5" x="215.013083" y="301.16419" style="stroke: #000000; stroke-width: 0.8"/>
      </g>
     </g>
     <g id="text_4">
      <!-- $\mathdefault{2^{9}}$ -->
      <g transform="translate(209.090226 317.850067) scale(0.14 -0.14)">
       <defs>
        <path id="CMR17-39" d="M 2253 1871 
C 2253 448 1670 25 1190 25 
C 1043 25 685 43 538 281 
C 704 256 826 345 826 505 
C 826 678 685 736 595 736 
C 538 736 365 710 365 492 
C 365 68 742 -128 1203 -128 
C 1939 -128 2688 665 2688 2090 
C 2688 3857 1971 4224 1485 4224 
C 851 4224 243 3664 243 2800 
C 243 2000 762 1408 1414 1408 
C 1952 1408 2189 1910 2253 2122 
L 2253 1871 
z
M 1427 1510 
C 1254 1510 1011 1542 813 1929 
C 678 2181 678 2477 678 2793 
C 678 3174 678 3438 858 3722 
C 947 3857 1114 4076 1485 4076 
C 2240 4076 2240 2909 2240 2651 
C 2240 2193 2035 1510 1427 1510 
z
" transform="scale(0.015625)"/>
       </defs>
       <use xlink:href="#CMR17-32" transform="scale(0.996264)"/>
       <use xlink:href="#CMR17-39" transform="translate(45.690477 36.153639) scale(0.697382)"/>
      </g>
     </g>
    </g>
    <g id="xtick_5">
     <g id="line2d_5">
      <g>
       <use xlink:href="#meddd15c5b5" x="269.211713" y="301.16419" style="stroke: #000000; stroke-width: 0.8"/>
      </g>
     </g>
     <g id="text_5">
      <!-- $\mathdefault{2^{10}}$ -->
      <g transform="translate(260.780242 317.850067) scale(0.14 -0.14)">
       <defs>
        <path id="CMR17-31" d="M 1702 4083 
C 1702 4217 1696 4224 1606 4224 
C 1357 3927 979 3833 621 3820 
C 602 3820 570 3820 563 3808 
C 557 3795 557 3782 557 3648 
C 755 3648 1088 3686 1344 3839 
L 1344 467 
C 1344 243 1331 166 781 166 
L 589 166 
L 589 0 
C 896 6 1216 12 1523 12 
C 1830 12 2150 6 2458 0 
L 2458 166 
L 2266 166 
C 1715 166 1702 236 1702 467 
L 1702 4083 
z
" transform="scale(0.015625)"/>
        <path id="CMR17-30" d="M 2688 2038 
C 2688 2430 2682 3099 2413 3613 
C 2176 4063 1798 4224 1466 4224 
C 1158 4224 768 4082 525 3620 
C 269 3137 243 2539 243 2038 
C 243 1671 250 1112 448 623 
C 723 -39 1216 -128 1466 -128 
C 1760 -128 2208 -7 2470 604 
C 2662 1048 2688 1568 2688 2038 
z
M 1466 -26 
C 1056 -26 813 328 723 816 
C 653 1196 653 1749 653 2109 
C 653 2604 653 3015 736 3407 
C 858 3954 1216 4121 1466 4121 
C 1728 4121 2067 3947 2189 3420 
C 2272 3054 2278 2623 2278 2109 
C 2278 1691 2278 1176 2202 797 
C 2067 96 1690 -26 1466 -26 
z
" transform="scale(0.015625)"/>
       </defs>
       <use xlink:href="#CMR17-32" transform="scale(0.996264)"/>
       <use xlink:href="#CMR17-31" transform="translate(45.690477 36.153639) scale(0.697382)"/>
       <use xlink:href="#CMR17-30" transform="translate(77.673659 36.153639) scale(0.697382)"/>
      </g>
     </g>
    </g>
    <g id="xtick_6">
     <g id="line2d_6">
      <g>
       <use xlink:href="#meddd15c5b5" x="323.410343" y="301.16419" style="stroke: #000000; stroke-width: 0.8"/>
      </g>
     </g>
     <g id="text_6">
      <!-- $\mathdefault{2^{11}}$ -->
      <g transform="translate(314.978872 317.850067) scale(0.14 -0.14)">
       <use xlink:href="#CMR17-32" transform="scale(0.996264)"/>
       <use xlink:href="#CMR17-31" transform="translate(45.690477 36.153639) scale(0.697382)"/>
       <use xlink:href="#CMR17-31" transform="translate(77.673659 36.153639) scale(0.697382)"/>
      </g>
     </g>
    </g>
    <g id="text_7">
     <!-- $N$ -->
     <g transform="translate(182.44571 334.247972) scale(0.14 -0.14)">
      <defs>
       <path id="CMMI12-4e" d="M 4736 3682 
C 4806 3956 4909 4147 5395 4166 
C 5414 4166 5491 4172 5491 4281 
C 5491 4352 5434 4352 5408 4352 
C 5280 4352 4954 4339 4826 4339 
L 4518 4339 
C 4429 4339 4314 4352 4224 4352 
C 4186 4352 4109 4352 4109 4230 
C 4109 4166 4160 4166 4205 4166 
C 4589 4153 4614 4007 4614 3892 
C 4614 3835 4608 3816 4589 3726 
L 3866 854 
L 2496 4243 
C 2451 4345 2445 4352 2304 4352 
L 1523 4352 
C 1395 4352 1338 4352 1338 4230 
C 1338 4166 1382 4166 1504 4166 
C 1536 4166 1914 4166 1914 4109 
C 1914 4096 1901 4045 1894 4026 
L 1043 650 
C 966 338 813 204 390 185 
C 358 185 294 179 294 64 
C 294 0 358 0 378 0 
C 506 0 832 12 960 12 
L 1267 12 
C 1357 12 1466 0 1555 0 
C 1600 0 1670 0 1670 121 
C 1670 179 1606 185 1581 185 
C 1370 191 1165 230 1165 459 
C 1165 510 1178 567 1190 618 
L 2054 4026 
C 2093 3962 2093 3949 2118 3892 
L 3642 115 
C 3674 38 3686 0 3744 0 
C 3808 0 3814 19 3840 128 
L 4736 3682 
z
" transform="scale(0.015625)"/>
      </defs>
      <use xlink:href="#CMMI12-4e" transform="scale(0.996264)"/>
     </g>
    </g>
   </g>
   <g id="matplotlib.axis_2">
    <g id="ytick_1">
     <g id="line2d_7">
      <defs>
       <path id="m80edb8591d" d="M 0 0 
L -3.5 0 
" style="stroke: #000000; stroke-width: 0.8"/>
      </defs>
      <g>
       <use xlink:href="#m80edb8591d" x="38.867537" y="291.714204" style="stroke: #000000; stroke-width: 0.8"/>
      </g>
     </g>
     <g id="text_8">
      <!-- $\mathdefault{2^{-16}}$ -->
      <g transform="translate(7.2 296.557142) scale(0.14 -0.14)">
       <defs>
        <path id="CMSY10-0" d="M 4218 1472 
C 4326 1472 4442 1472 4442 1600 
C 4442 1728 4326 1728 4218 1728 
L 755 1728 
C 646 1728 531 1728 531 1600 
C 531 1472 646 1472 755 1472 
L 4218 1472 
z
" transform="scale(0.015625)"/>
       </defs>
       <use xlink:href="#CMR17-32" transform="scale(0.996264)"/>
       <use xlink:href="#CMSY10-0" transform="translate(45.690477 36.153639) scale(0.697382)"/>
       <use xlink:href="#CMR17-31" transform="translate(99.93147 36.153639) scale(0.697382)"/>
       <use xlink:href="#CMR17-36" transform="translate(131.914652 36.153639) scale(0.697382)"/>
      </g>
     </g>
    </g>
    <g id="ytick_2">
     <g id="line2d_8">
      <g>
       <use xlink:href="#m80edb8591d" x="38.867537" y="156.18299" style="stroke: #000000; stroke-width: 0.8"/>
      </g>
     </g>
     <g id="text_9">
      <!-- $\mathdefault{2^{-15}}$ -->
      <g transform="translate(7.2 161.025928) scale(0.14 -0.14)">
       <defs>
        <path id="CMR17-35" d="M 730 3750 
C 794 3724 1056 3641 1325 3641 
C 1920 3641 2246 3961 2432 4140 
C 2432 4191 2432 4224 2394 4224 
C 2387 4224 2374 4224 2323 4198 
C 2099 4102 1837 4032 1517 4032 
C 1325 4032 1037 4055 723 4191 
C 653 4224 640 4224 634 4224 
C 602 4224 595 4217 595 4090 
L 595 2231 
C 595 2113 595 2080 659 2080 
C 691 2080 704 2093 736 2139 
C 941 2435 1222 2560 1542 2560 
C 1766 2560 2246 2415 2246 1293 
C 2246 1087 2246 716 2054 422 
C 1894 159 1645 25 1370 25 
C 947 25 518 319 403 812 
C 429 806 480 793 506 793 
C 589 793 749 838 749 1036 
C 749 1209 627 1280 506 1280 
C 358 1280 262 1190 262 1011 
C 262 454 704 -128 1382 -128 
C 2042 -128 2669 441 2669 1267 
C 2669 2054 2170 2662 1549 2662 
C 1222 2662 947 2540 730 2304 
L 730 3750 
z
" transform="scale(0.015625)"/>
       </defs>
       <use xlink:href="#CMR17-32" transform="scale(0.996264)"/>
       <use xlink:href="#CMSY10-0" transform="translate(45.690477 36.153639) scale(0.697382)"/>
       <use xlink:href="#CMR17-31" transform="translate(99.93147 36.153639) scale(0.697382)"/>
       <use xlink:href="#CMR17-35" transform="translate(131.914652 36.153639) scale(0.697382)"/>
      </g>
     </g>
    </g>
    <g id="ytick_3">
     <g id="line2d_9">
      <g>
       <use xlink:href="#m80edb8591d" x="38.867537" y="20.651776" style="stroke: #000000; stroke-width: 0.8"/>
      </g>
     </g>
     <g id="text_10">
      <!-- $\mathdefault{2^{-14}}$ -->
      <g transform="translate(7.2 25.494714) scale(0.14 -0.14)">
       <defs>
        <path id="CMR17-34" d="M 2150 4147 
C 2150 4281 2144 4288 2029 4288 
L 128 1254 
L 128 1088 
L 1779 1088 
L 1779 460 
C 1779 230 1766 166 1318 166 
L 1197 166 
L 1197 0 
C 1402 12 1747 12 1965 12 
C 2182 12 2528 12 2733 0 
L 2733 166 
L 2611 166 
C 2163 166 2150 230 2150 460 
L 2150 1088 
L 2803 1088 
L 2803 1254 
L 2150 1254 
L 2150 4147 
z
M 1798 3723 
L 1798 1254 
L 256 1254 
L 1798 3723 
z
" transform="scale(0.015625)"/>
       </defs>
       <use xlink:href="#CMR17-32" transform="scale(0.996264)"/>
       <use xlink:href="#CMSY10-0" transform="translate(45.690477 36.153639) scale(0.697382)"/>
       <use xlink:href="#CMR17-31" transform="translate(99.93147 36.153639) scale(0.697382)"/>
       <use xlink:href="#CMR17-34" transform="translate(131.914652 36.153639) scale(0.697382)"/>
      </g>
     </g>
    </g>
   </g>
   <g id="line2d_10"/>
   <g id="line2d_11">
    <path d="M 52.417194 183.800334 
L 106.615824 204.600704 
L 160.814454 225.401073 
L 215.013083 246.201443 
L 269.211713 267.001812 
L 323.410343 287.802182 
" clip-path="url(#pfae497aac0)" style="fill: none; stroke-dasharray: 3.7,1.6; stroke-dashoffset: 0; stroke: #000000"/>
   </g>
   <g id="patch_3">
    <path d="M 38.867537 301.16419 
L 38.867537 7.2 
" style="fill: none; stroke: #000000; stroke-width: 0.8; stroke-linejoin: miter; stroke-linecap: square"/>
   </g>
   <g id="patch_4">
    <path d="M 336.96 301.16419 
L 336.96 7.2 
" style="fill: none; stroke: #000000; stroke-width: 0.8; stroke-linejoin: miter; stroke-linecap: square"/>
   </g>
   <g id="patch_5">
    <path d="M 38.867537 301.16419 
L 336.96 301.16419 
" style="fill: none; stroke: #000000; stroke-width: 0.8; stroke-linejoin: miter; stroke-linecap: square"/>
   </g>
   <g id="patch_6">
    <path d="M 38.867537 7.2 
L 336.96 7.2 
" style="fill: none; stroke: #000000; stroke-width: 0.8; stroke-linejoin: miter; stroke-linecap: square"/>
   </g>
   <g id="legend_1">
    <g id="patch_7">
     <path d="M 166.453585 99.674183 
L 327.16 99.674183 
Q 329.96 99.674183 329.96 96.874183 
L 329.96 17 
Q 329.96 14.2 327.16 14.2 
L 166.453585 14.2 
Q 163.653585 14.2 163.653585 17 
L 163.653585 96.874183 
Q 163.653585 99.674183 166.453585 99.674183 
z
" style="fill: #ffffff; stroke: #cccccc; stroke-linejoin: miter"/>
    </g>
    <g id="line2d_12"/>
    <g id="text_11">
     <!-- ($n=64$) -->
     <g transform="translate(208.453585 30.260772) scale(0.14 -0.14)">
      <defs>
       <path id="CMR17-28" d="M 1958 -1562 
C 1958 -1556 1958 -1543 1939 -1524 
C 1645 -1223 858 -403 858 1596 
C 858 3595 1632 4408 1946 4729 
C 1946 4735 1958 4748 1958 4767 
C 1958 4787 1939 4800 1914 4800 
C 1843 4800 1299 4325 986 3620 
C 666 2909 576 2218 576 1603 
C 576 1141 621 360 1005 -467 
C 1312 -1133 1837 -1600 1914 -1600 
C 1946 -1600 1958 -1588 1958 -1562 
z
" transform="scale(0.015625)"/>
       <path id="CMMI12-6e" d="M 1318 1870 
C 1331 1909 1491 2228 1728 2432 
C 1894 2585 2112 2687 2362 2687 
C 2618 2687 2707 2496 2707 2241 
C 2707 1877 2445 1149 2317 804 
C 2259 651 2227 568 2227 453 
C 2227 166 2426 -64 2733 -64 
C 3328 -64 3552 874 3552 913 
C 3552 945 3526 970 3488 970 
C 3430 970 3424 951 3392 842 
C 3245 319 3002 64 2752 64 
C 2688 64 2586 70 2586 274 
C 2586 434 2656 625 2694 715 
C 2822 1066 3091 1781 3091 2145 
C 3091 2528 2867 2816 2381 2816 
C 1811 2816 1510 2413 1395 2253 
C 1376 2617 1114 2816 832 2816 
C 627 2816 486 2694 378 2477 
C 262 2247 173 1864 173 1838 
C 173 1813 198 1781 243 1781 
C 294 1781 301 1787 339 1934 
C 442 2324 557 2687 813 2687 
C 960 2687 1011 2585 1011 2394 
C 1011 2253 947 2004 902 1807 
L 723 1117 
C 698 996 627 708 595 593 
C 550 427 480 127 480 95 
C 480 6 550 -64 646 -64 
C 723 -64 813 -26 864 70 
C 877 102 934 325 966 453 
L 1107 1028 
L 1318 1870 
z
" transform="scale(0.015625)"/>
       <path id="CMR17-3d" d="M 4115 2048 
C 4211 2048 4307 2048 4307 2156 
C 4307 2272 4198 2272 4090 2272 
L 512 2272 
C 403 2272 294 2272 294 2156 
C 294 2048 390 2048 486 2048 
L 4115 2048 
z
M 4090 927 
C 4198 927 4307 927 4307 1043 
C 4307 1152 4211 1152 4115 1152 
L 486 1152 
C 390 1152 294 1152 294 1043 
C 294 927 403 927 512 927 
L 4090 927 
z
" transform="scale(0.015625)"/>
       <path id="CMR17-29" d="M 1683 1596 
C 1683 2057 1638 2839 1254 3665 
C 947 4332 422 4800 346 4800 
C 326 4800 301 4793 301 4761 
C 301 4748 307 4742 314 4729 
C 621 4408 1402 3595 1402 1603 
C 1402 -396 627 -1210 314 -1530 
C 307 -1543 301 -1549 301 -1562 
C 301 -1594 326 -1600 346 -1600 
C 416 -1600 960 -1127 1274 -422 
C 1594 289 1683 981 1683 1596 
z
" transform="scale(0.015625)"/>
      </defs>
      <use xlink:href="#CMR17-28" transform="scale(0.996264)"/>
      <use xlink:href="#CMMI12-6e" transform="translate(35.280768 0) scale(0.996264)"/>
      <use xlink:href="#CMR17-3d" transform="translate(121.184824 0) scale(0.996264)"/>
      <use xlink:href="#CMR17-36" transform="translate(220.573621 0) scale(0.996264)"/>
      <use xlink:href="#CMR17-34" transform="translate(266.264098 0) scale(0.996264)"/>
      <use xlink:href="#CMR17-29" transform="translate(311.954575 0) scale(0.996264)"/>
     </g>
    </g>
    <g id="PathCollection_8">
     <g>
      <use xlink:href="#m9e3f106ba9" x="183.253585" y="47.533468" style="stroke: #000000"/>
     </g>
    </g>
    <g id="text_12">
     <!-- $G_{\mathrm{ref}}(u_N^*)-G_{\mathrm{ref}}(u^*)$ -->
     <g transform="translate(208.453585 51.208468) scale(0.14 -0.14)">
      <defs>
       <path id="CMMI12-47" d="M 4774 4422 
C 4774 4480 4730 4480 4717 4480 
C 4704 4480 4678 4480 4627 4415 
L 4186 3887 
C 4154 3938 4026 4161 3776 4307 
C 3501 4480 3226 4480 3130 4480 
C 1760 4480 320 3093 320 1593 
C 320 546 1050 -128 2010 -128 
C 2470 -128 3053 25 3373 425 
C 3443 184 3584 12 3629 12 
C 3661 12 3667 32 3674 32 
C 3680 44 3731 266 3763 381 
L 3866 787 
C 3917 996 3942 1085 3987 1275 
C 4051 1516 4064 1535 4416 1542 
C 4442 1542 4518 1542 4518 1663 
C 4518 1728 4454 1728 4435 1728 
C 4326 1728 4205 1715 4090 1715 
L 3744 1715 
C 3475 1715 3194 1728 2931 1728 
C 2874 1728 2797 1728 2797 1612 
C 2797 1548 2848 1548 2848 1542 
L 3008 1542 
C 3514 1542 3514 1491 3514 1396 
C 3514 1390 3392 749 3270 558 
C 3027 203 2522 57 2144 57 
C 1651 57 851 311 851 1409 
C 851 1835 1005 2807 1626 3525 
C 2029 3983 2624 4294 3187 4294 
C 3942 4294 4211 3652 4211 3068 
C 4211 2966 4186 2826 4186 2738 
C 4186 2680 4250 2680 4269 2680 
C 4339 2680 4346 2687 4371 2801 
L 4774 4422 
z
" transform="scale(0.015625)"/>
       <path id="CMR17-72" d="M 960 1517 
C 960 2134 1222 2713 1702 2713 
C 1747 2713 1792 2707 1837 2687 
C 1837 2687 1696 2642 1696 2475 
C 1696 2321 1818 2257 1914 2257 
C 1990 2257 2131 2302 2131 2482 
C 2131 2687 1926 2816 1709 2816 
C 1222 2816 1011 2340 947 2115 
L 941 2115 
L 941 2816 
L 198 2745 
L 198 2578 
C 576 2578 634 2540 634 2231 
L 634 443 
C 634 198 608 166 198 166 
L 198 0 
C 352 12 646 12 813 12 
C 998 12 1325 12 1498 0 
L 1498 166 
C 1037 166 960 166 960 455 
L 960 1517 
z
" transform="scale(0.015625)"/>
       <path id="CMR17-65" d="M 2438 1503 
C 2464 1529 2464 1542 2464 1606 
C 2464 2251 2118 2816 1389 2816 
C 710 2816 173 2175 173 1394 
C 173 554 781 -64 1459 -64 
C 2176 -64 2458 619 2458 755 
C 2458 800 2419 800 2406 800 
C 2362 800 2355 787 2330 709 
C 2189 270 1837 51 1504 51 
C 1229 51 954 206 781 490 
C 582 819 582 1200 582 1503 
L 2438 1503 
z
M 589 1600 
C 634 2511 1126 2713 1382 2713 
C 1818 2713 2112 2308 2118 1600 
L 589 1600 
z
" transform="scale(0.015625)"/>
       <path id="CMR17-66" d="M 979 2585 
L 1709 2585 
L 1709 2752 
L 966 2752 
L 966 3539 
C 966 4076 1235 4377 1510 4377 
C 1594 4377 1690 4363 1754 4339 
C 1702 4326 1568 4281 1568 4121 
C 1568 3955 1696 3904 1786 3904 
C 1875 3904 2003 3955 2003 4121 
C 2003 4353 1773 4480 1517 4480 
C 1152 4480 653 4211 653 3526 
L 653 2752 
L 141 2752 
L 141 2585 
L 653 2585 
L 653 441 
C 653 198 627 166 218 166 
L 218 0 
C 371 12 666 12 832 12 
C 1018 12 1344 12 1517 0 
L 1517 166 
C 1056 166 979 166 979 454 
L 979 2585 
z
" transform="scale(0.015625)"/>
       <path id="CMMI12-75" d="M 2182 370 
C 2266 12 2573 -64 2726 -64 
C 2931 -64 3085 70 3187 287 
C 3296 517 3379 893 3379 913 
C 3379 944 3354 970 3315 970 
C 3258 970 3251 938 3226 842 
C 3110 402 2995 64 2739 64 
C 2547 64 2547 274 2547 357 
C 2547 504 2566 568 2630 836 
C 2675 1008 2720 1181 2758 1359 
L 3021 2400 
C 3066 2560 3066 2572 3066 2591 
C 3066 2687 2989 2752 2893 2752 
C 2707 2752 2662 2591 2624 2432 
C 2560 2183 2214 810 2170 587 
C 2163 587 1914 64 1446 64 
C 1114 64 1050 351 1050 587 
C 1050 951 1229 1462 1395 1890 
C 1472 2094 1504 2177 1504 2305 
C 1504 2579 1306 2816 998 2816 
C 410 2816 173 1890 173 1838 
C 173 1813 198 1781 243 1781 
C 301 1781 307 1807 333 1896 
C 486 2445 736 2687 979 2687 
C 1043 2687 1146 2681 1146 2477 
C 1146 2311 1075 2126 979 1883 
C 698 1123 666 881 666 689 
C 666 38 1158 -64 1421 -64 
C 1830 -64 2054 217 2182 370 
z
" transform="scale(0.015625)"/>
       <path id="CMSY10-3" d="M 1760 2762 
C 1766 2853 1766 3008 1600 3008 
C 1498 3008 1414 2924 1434 2840 
L 1434 2755 
L 1523 1740 
L 704 2349 
C 646 2382 634 2395 589 2395 
C 499 2395 416 2303 416 2212 
C 416 2107 480 2081 544 2048 
L 1453 1603 
L 570 1164 
C 467 1112 416 1085 416 987 
C 416 889 499 804 589 804 
C 634 804 646 804 806 928 
L 1523 1459 
L 1427 359 
C 1427 224 1542 192 1594 192 
C 1670 192 1766 236 1766 359 
L 1670 1459 
L 2490 850 
C 2547 817 2560 804 2605 804 
C 2694 804 2778 896 2778 987 
C 2778 1085 2720 1118 2643 1157 
C 2259 1354 2246 1354 1741 1596 
L 2624 2035 
C 2726 2087 2778 2113 2778 2212 
C 2778 2310 2694 2395 2605 2395 
C 2560 2395 2547 2395 2387 2271 
L 1670 1740 
L 1760 2762 
z
" transform="scale(0.015625)"/>
      </defs>
      <use xlink:href="#CMMI12-47" transform="scale(0.996264)"/>
      <use xlink:href="#CMR17-72" transform="translate(76.946862 -14.943915) scale(0.697382)"/>
      <use xlink:href="#CMR17-65" transform="translate(101.643282 -14.943915) scale(0.697382)"/>
      <use xlink:href="#CMR17-66" transform="translate(129.983114 -14.943915) scale(0.697382)"/>
      <use xlink:href="#CMR17-28" transform="translate(153.846446 0) scale(0.996264)"/>
      <use xlink:href="#CMMI12-75" transform="translate(189.127214 0) scale(0.996264)"/>
      <use xlink:href="#CMSY10-3" transform="translate(244.647544 36.153639) scale(0.697382)"/>
      <use xlink:href="#CMMI12-4e" transform="translate(244.647544 -27.44057) scale(0.697382)"/>
      <use xlink:href="#CMR17-29" transform="translate(307.110649 0) scale(0.996264)"/>
      <use xlink:href="#CMSY10-0" transform="translate(364.530624 0) scale(0.996264)"/>
      <use xlink:href="#CMMI12-47" transform="translate(464.157298 0) scale(0.996264)"/>
      <use xlink:href="#CMR17-72" transform="translate(541.10416 -14.943915) scale(0.697382)"/>
      <use xlink:href="#CMR17-65" transform="translate(565.800581 -14.943915) scale(0.697382)"/>
      <use xlink:href="#CMR17-66" transform="translate(594.140412 -14.943915) scale(0.697382)"/>
      <use xlink:href="#CMR17-28" transform="translate(618.003745 0) scale(0.996264)"/>
      <use xlink:href="#CMMI12-75" transform="translate(653.284512 0) scale(0.996264)"/>
      <use xlink:href="#CMSY10-3" transform="translate(708.804842 36.153639) scale(0.697382)"/>
      <use xlink:href="#CMR17-29" transform="translate(744.172184 0) scale(0.996264)"/>
     </g>
    </g>
    <g id="PathCollection_9">
     <g>
      <use xlink:href="#m6b9e7442d1" x="183.253585" y="68.175126" style="stroke: #000000"/>
     </g>
    </g>
    <g id="text_13">
     <!-- mean -->
     <g transform="translate(208.453585 71.850126) scale(0.14 -0.14)">
      <defs>
       <path id="CMR17-6d" d="M 4326 1954 
C 4326 2276 4269 2816 3507 2816 
C 3072 2816 2771 2520 2656 2173 
L 2650 2173 
C 2573 2700 2195 2816 1837 2816 
C 1331 2816 1069 2424 973 2166 
L 966 2166 
L 966 2816 
L 211 2745 
L 211 2578 
C 589 2578 646 2540 646 2231 
L 646 443 
C 646 198 621 166 211 166 
L 211 0 
C 365 12 646 12 813 12 
C 979 12 1267 12 1421 0 
L 1421 166 
C 1011 166 986 192 986 443 
L 986 1678 
C 986 2269 1344 2713 1792 2713 
C 2266 2713 2317 2289 2317 1980 
L 2317 443 
C 2317 198 2291 166 1882 166 
L 1882 0 
C 2035 12 2317 12 2483 12 
C 2650 12 2938 12 3091 0 
L 3091 166 
C 2682 166 2656 192 2656 443 
L 2656 1678 
C 2656 2269 3014 2713 3462 2713 
C 3936 2713 3987 2289 3987 1980 
L 3987 443 
C 3987 198 3962 166 3552 166 
L 3552 0 
C 3706 12 3987 12 4154 12 
C 4320 12 4608 12 4762 0 
L 4762 166 
C 4352 166 4326 192 4326 443 
L 4326 1954 
z
" transform="scale(0.015625)"/>
       <path id="CMR17-61" d="M 2304 1656 
C 2304 2048 2304 2275 2035 2534 
C 1798 2751 1523 2816 1306 2816 
C 800 2816 435 2408 435 1977 
C 435 1740 627 1728 666 1728 
C 749 1728 896 1779 896 1958 
C 896 2118 774 2188 666 2188 
C 640 2188 608 2182 589 2176 
C 723 2594 1069 2713 1293 2713 
C 1613 2713 1965 2421 1965 1875 
L 1965 1632 
C 1587 1619 1133 1568 774 1373 
C 371 1147 256 822 256 576 
C 256 77 832 -64 1171 -64 
C 1523 -64 1850 135 1990 505 
C 2003 219 2182 -39 2464 -39 
C 2598 -39 2938 51 2938 563 
L 2938 926 
L 2822 926 
L 2822 557 
C 2822 161 2650 109 2566 109 
C 2304 109 2304 446 2304 732 
L 2304 1656 
z
M 1965 887 
C 1965 323 1568 38 1216 38 
C 896 38 646 278 646 576 
C 646 771 730 1114 1101 1322 
C 1408 1497 1760 1523 1965 1536 
L 1965 887 
z
" transform="scale(0.015625)"/>
       <path id="CMR17-6e" d="M 2656 1954 
C 2656 2282 2592 2816 1837 2816 
C 1331 2816 1069 2424 973 2166 
L 966 2166 
L 966 2816 
L 211 2745 
L 211 2578 
C 589 2578 646 2540 646 2231 
L 646 443 
C 646 198 621 166 211 166 
L 211 0 
C 365 12 646 12 813 12 
C 979 12 1267 12 1421 0 
L 1421 166 
C 1011 166 986 192 986 443 
L 986 1678 
C 986 2269 1344 2713 1792 2713 
C 2266 2713 2317 2289 2317 1980 
L 2317 443 
C 2317 198 2291 166 1882 166 
L 1882 0 
C 2035 12 2317 12 2483 12 
C 2650 12 2938 12 3091 0 
L 3091 166 
C 2682 166 2656 192 2656 443 
L 2656 1954 
z
" transform="scale(0.015625)"/>
      </defs>
      <use xlink:href="#CMR17-6d" transform="scale(0.996264)"/>
      <use xlink:href="#CMR17-65" transform="translate(76.91959 0) scale(0.996264)"/>
      <use xlink:href="#CMR17-61" transform="translate(117.40525 0) scale(0.996264)"/>
      <use xlink:href="#CMR17-6e" transform="translate(163.095727 0) scale(0.996264)"/>
     </g>
    </g>
    <g id="line2d_13">
     <path d="M 169.253585 86.462154 
L 183.253585 86.462154 
L 197.253585 86.462154 
" style="fill: none; stroke-dasharray: 3.7,1.6; stroke-dashoffset: 0; stroke: #000000"/>
    </g>
    <g id="text_14">
     <!-- $5.02e-05\cdot N^{-0.153}$ -->
     <g transform="translate(208.453585 91.362154) scale(0.14 -0.14)">
      <defs>
       <path id="CMMI12-3a" d="M 1178 307 
C 1178 492 1024 620 870 620 
C 685 620 557 467 557 313 
C 557 128 710 0 864 0 
C 1050 0 1178 153 1178 307 
z
" transform="scale(0.015625)"/>
       <path id="CMMI12-65" d="M 1146 1472 
C 1318 1472 1754 1484 2061 1600 
C 2547 1786 2592 2160 2592 2275 
C 2592 2559 2349 2816 1926 2816 
C 1254 2816 288 2205 288 1066 
C 288 400 672 -64 1254 -64 
C 2125 -64 2675 609 2675 691 
C 2675 729 2637 761 2611 761 
C 2592 761 2586 755 2528 698 
C 2118 159 1510 64 1267 64 
C 902 64 710 349 710 818 
C 710 907 710 1066 806 1472 
L 1146 1472 
z
M 838 1600 
C 1114 2591 1722 2687 1926 2687 
C 2208 2687 2400 2520 2400 2275 
C 2400 1600 1376 1600 1107 1600 
L 838 1600 
z
" transform="scale(0.015625)"/>
       <path id="CMSY10-1" d="M 1229 1619 
C 1229 1804 1075 1958 890 1958 
C 704 1958 550 1804 550 1619 
C 550 1433 704 1280 890 1280 
C 1075 1280 1229 1433 1229 1619 
z
" transform="scale(0.015625)"/>
       <path id="CMR17-33" d="M 1414 2176 
C 1984 2176 2234 1673 2234 1094 
C 2234 322 1824 25 1453 25 
C 1114 25 563 193 390 691 
C 422 678 454 678 486 678 
C 640 678 755 780 755 947 
C 755 1132 614 1216 486 1216 
C 378 1216 211 1164 211 927 
C 211 335 787 -128 1466 -128 
C 2176 -128 2720 432 2720 1087 
C 2720 1718 2208 2176 1600 2246 
C 2086 2347 2554 2776 2554 3353 
C 2554 3856 2048 4224 1472 4224 
C 890 4224 378 3862 378 3347 
C 378 3123 544 3084 627 3084 
C 762 3084 877 3167 877 3334 
C 877 3500 762 3584 627 3584 
C 602 3584 570 3584 544 3571 
C 730 3999 1235 4076 1459 4076 
C 1683 4076 2106 3966 2106 3347 
C 2106 3167 2080 2851 1862 2574 
C 1670 2329 1453 2316 1242 2297 
C 1210 2297 1062 2284 1037 2284 
C 992 2278 966 2272 966 2227 
C 966 2182 973 2176 1101 2176 
L 1414 2176 
z
" transform="scale(0.015625)"/>
      </defs>
      <use xlink:href="#CMR17-35" transform="scale(0.996264)"/>
      <use xlink:href="#CMMI12-3a" transform="translate(45.690477 0) scale(0.996264)"/>
      <use xlink:href="#CMR17-30" transform="translate(72.787654 0) scale(0.996264)"/>
      <use xlink:href="#CMR17-32" transform="translate(118.478131 0) scale(0.996264)"/>
      <use xlink:href="#CMMI12-65" transform="translate(164.168608 0) scale(0.996264)"/>
      <use xlink:href="#CMSY10-0" transform="translate(231.519816 0) scale(0.996264)"/>
      <use xlink:href="#CMR17-30" transform="translate(331.146491 0) scale(0.996264)"/>
      <use xlink:href="#CMR17-35" transform="translate(376.836968 0) scale(0.996264)"/>
      <use xlink:href="#CMSY10-1" transform="translate(444.666652 0) scale(0.996264)"/>
      <use xlink:href="#CMMI12-4e" transform="translate(494.479944 0) scale(0.996264)"/>
      <use xlink:href="#CMSY10-0" transform="translate(583.001717 36.153639) scale(0.697382)"/>
      <use xlink:href="#CMR17-30" transform="translate(637.24271 36.153639) scale(0.697382)"/>
      <use xlink:href="#CMMI12-3a" transform="translate(669.225892 36.153639) scale(0.697382)"/>
      <use xlink:href="#CMR17-31" transform="translate(688.193825 36.153639) scale(0.697382)"/>
      <use xlink:href="#CMR17-35" transform="translate(720.177007 36.153639) scale(0.697382)"/>
      <use xlink:href="#CMR17-33" transform="translate(752.160188 36.153639) scale(0.697382)"/>
     </g>
    </g>
   </g>
  </g>
 </g>
 <defs>
  <clipPath id="pfae497aac0">
   <rect x="38.867537" y="7.2" width="298.092463" height="293.96419"/>
  </clipPath>
 </defs>
</svg>
