<?xml version="1.0" encoding="utf-8" standalone="no"?>
<!DOCTYPE svg PUBLIC "-//W3C//DTD SVG 1.1//EN"
  "http://www.w3.org/Graphics/SVG/1.1/DTD/svg11.dtd">
<svg xmlns:xlink="http://www.w3.org/1999/xlink" width="344.16pt" height="344.16pt" viewBox="0 0 344.16 344.16" xmlns="http://www.w3.org/2000/svg" version="1.1">
 <metadata>
  <rdf:RDF xmlns:dc="http://purl.org/dc/elements/1.1/" xmlns:cc="http://creativecommons.org/ns#" xmlns:rdf="http://www.w3.org/1999/02/22-rdf-syntax-ns#">
   <cc:Work>
    <dc:type rdf:resource="http://purl.org/dc/dcmitype/StillImage"/>
    <dc:date>2024-07-31T11:57:44.981811</dc:date>
    <dc:format>image/svg+xml</dc:format>
    <dc:creator>
     <cc:Agent>
      <dc:title>Matplotlib v3.8.4, https://matplotlib.org/</dc:title>
     </cc:Agent>
    </dc:creator>
   </cc:Work>
  </rdf:RDF>
 </metadata>
 <defs>
  <style type="text/css">*{stroke-linejoin: round; stroke-linecap: butt}</style>
 </defs>
 <g id="figure_1">
  <g id="patch_1">
   <path d="M 0 344.16 
L 344.16 344.16 
L 344.16 0 
L 0 0 
z
" style="fill: #ffffff"/>
  </g>
  <g id="axes_1">
   <g id="patch_2">
    <path d="M 33.85031 301.16419 
L 336.96 301.16419 
L 336.96 7.2 
L 33.85031 7.2 
z
" style="fill: #ffffff"/>
   </g>
   <g id="PathCollection_1">
    <defs>
     <path id="mbdd7f5e0ee" d="M 0 0.707107 
C 0.187527 0.707107 0.367398 0.632602 0.5 0.5 
C 0.632602 0.367398 0.707107 0.187527 0.707107 0 
C 0.707107 -0.187527 0.632602 -0.367398 0.5 -0.5 
C 0.367398 -0.632602 0.187527 -0.707107 0 -0.707107 
C -0.187527 -0.707107 -0.367398 -0.632602 -0.5 -0.5 
C -0.632602 -0.367398 -0.707107 -0.187527 -0.707107 0 
C -0.707107 0.187527 -0.632602 0.367398 -0.5 0.5 
C -0.367398 0.632602 -0.187527 0.707107 0 0.707107 
z
" style="stroke: #000000"/>
    </defs>
    <g clip-path="url(#p8c1b1aa7a6)">
     <use xlink:href="#mbdd7f5e0ee" x="47.628024" y="95.668355" style="stroke: #000000"/>
     <use xlink:href="#mbdd7f5e0ee" x="47.628024" y="41.127478" style="stroke: #000000"/>
     <use xlink:href="#mbdd7f5e0ee" x="47.628024" y="120.438884" style="stroke: #000000"/>
     <use xlink:href="#mbdd7f5e0ee" x="47.628024" y="140.270213" style="stroke: #000000"/>
     <use xlink:href="#mbdd7f5e0ee" x="47.628024" y="61.22969" style="stroke: #000000"/>
     <use xlink:href="#mbdd7f5e0ee" x="47.628024" y="43.537861" style="stroke: #000000"/>
     <use xlink:href="#mbdd7f5e0ee" x="47.628024" y="107.573167" style="stroke: #000000"/>
     <use xlink:href="#mbdd7f5e0ee" x="47.628024" y="41.953252" style="stroke: #000000"/>
     <use xlink:href="#mbdd7f5e0ee" x="47.628024" y="135.09497" style="stroke: #000000"/>
     <use xlink:href="#mbdd7f5e0ee" x="47.628024" y="59.517261" style="stroke: #000000"/>
     <use xlink:href="#mbdd7f5e0ee" x="47.628024" y="90.791448" style="stroke: #000000"/>
     <use xlink:href="#mbdd7f5e0ee" x="47.628024" y="116.810871" style="stroke: #000000"/>
     <use xlink:href="#mbdd7f5e0ee" x="47.628024" y="27.939519" style="stroke: #000000"/>
     <use xlink:href="#mbdd7f5e0ee" x="47.628024" y="54.961346" style="stroke: #000000"/>
     <use xlink:href="#mbdd7f5e0ee" x="47.628024" y="94.753817" style="stroke: #000000"/>
     <use xlink:href="#mbdd7f5e0ee" x="47.628024" y="91.078914" style="stroke: #000000"/>
     <use xlink:href="#mbdd7f5e0ee" x="47.628024" y="97.940134" style="stroke: #000000"/>
     <use xlink:href="#mbdd7f5e0ee" x="47.628024" y="104.770453" style="stroke: #000000"/>
     <use xlink:href="#mbdd7f5e0ee" x="47.628024" y="158.826436" style="stroke: #000000"/>
     <use xlink:href="#mbdd7f5e0ee" x="47.628024" y="168.808216" style="stroke: #000000"/>
     <use xlink:href="#mbdd7f5e0ee" x="47.628024" y="20.562009" style="stroke: #000000"/>
     <use xlink:href="#mbdd7f5e0ee" x="47.628024" y="143.145583" style="stroke: #000000"/>
     <use xlink:href="#mbdd7f5e0ee" x="47.628024" y="40.6588" style="stroke: #000000"/>
     <use xlink:href="#mbdd7f5e0ee" x="47.628024" y="135.232791" style="stroke: #000000"/>
     <use xlink:href="#mbdd7f5e0ee" x="47.628024" y="40.497436" style="stroke: #000000"/>
     <use xlink:href="#mbdd7f5e0ee" x="47.628024" y="54.346605" style="stroke: #000000"/>
     <use xlink:href="#mbdd7f5e0ee" x="47.628024" y="70.038535" style="stroke: #000000"/>
     <use xlink:href="#mbdd7f5e0ee" x="47.628024" y="79.281791" style="stroke: #000000"/>
     <use xlink:href="#mbdd7f5e0ee" x="47.628024" y="56.660299" style="stroke: #000000"/>
     <use xlink:href="#mbdd7f5e0ee" x="47.628024" y="123.031489" style="stroke: #000000"/>
     <use xlink:href="#mbdd7f5e0ee" x="47.628024" y="113.692948" style="stroke: #000000"/>
     <use xlink:href="#mbdd7f5e0ee" x="47.628024" y="71.289008" style="stroke: #000000"/>
     <use xlink:href="#mbdd7f5e0ee" x="47.628024" y="117.641553" style="stroke: #000000"/>
     <use xlink:href="#mbdd7f5e0ee" x="47.628024" y="72.794332" style="stroke: #000000"/>
     <use xlink:href="#mbdd7f5e0ee" x="47.628024" y="89.352158" style="stroke: #000000"/>
     <use xlink:href="#mbdd7f5e0ee" x="47.628024" y="116.775674" style="stroke: #000000"/>
     <use xlink:href="#mbdd7f5e0ee" x="47.628024" y="81.065317" style="stroke: #000000"/>
     <use xlink:href="#mbdd7f5e0ee" x="47.628024" y="62.961677" style="stroke: #000000"/>
     <use xlink:href="#mbdd7f5e0ee" x="47.628024" y="70.892659" style="stroke: #000000"/>
     <use xlink:href="#mbdd7f5e0ee" x="47.628024" y="126.257431" style="stroke: #000000"/>
    </g>
   </g>
   <g id="PathCollection_2">
    <g clip-path="url(#p8c1b1aa7a6)">
     <use xlink:href="#mbdd7f5e0ee" x="102.738876" y="101.078389" style="stroke: #000000"/>
     <use xlink:href="#mbdd7f5e0ee" x="102.738876" y="158.704803" style="stroke: #000000"/>
     <use xlink:href="#mbdd7f5e0ee" x="102.738876" y="202.405445" style="stroke: #000000"/>
     <use xlink:href="#mbdd7f5e0ee" x="102.738876" y="159.161051" style="stroke: #000000"/>
     <use xlink:href="#mbdd7f5e0ee" x="102.738876" y="145.105715" style="stroke: #000000"/>
     <use xlink:href="#mbdd7f5e0ee" x="102.738876" y="89.061468" style="stroke: #000000"/>
     <use xlink:href="#mbdd7f5e0ee" x="102.738876" y="113.20611" style="stroke: #000000"/>
     <use xlink:href="#mbdd7f5e0ee" x="102.738876" y="108.4171" style="stroke: #000000"/>
     <use xlink:href="#mbdd7f5e0ee" x="102.738876" y="149.439491" style="stroke: #000000"/>
     <use xlink:href="#mbdd7f5e0ee" x="102.738876" y="42.788061" style="stroke: #000000"/>
     <use xlink:href="#mbdd7f5e0ee" x="102.738876" y="133.833461" style="stroke: #000000"/>
     <use xlink:href="#mbdd7f5e0ee" x="102.738876" y="127.349776" style="stroke: #000000"/>
     <use xlink:href="#mbdd7f5e0ee" x="102.738876" y="65.080705" style="stroke: #000000"/>
     <use xlink:href="#mbdd7f5e0ee" x="102.738876" y="157.745771" style="stroke: #000000"/>
     <use xlink:href="#mbdd7f5e0ee" x="102.738876" y="107.132563" style="stroke: #000000"/>
     <use xlink:href="#mbdd7f5e0ee" x="102.738876" y="84.28319" style="stroke: #000000"/>
     <use xlink:href="#mbdd7f5e0ee" x="102.738876" y="166.348462" style="stroke: #000000"/>
     <use xlink:href="#mbdd7f5e0ee" x="102.738876" y="127.573905" style="stroke: #000000"/>
     <use xlink:href="#mbdd7f5e0ee" x="102.738876" y="100.891891" style="stroke: #000000"/>
     <use xlink:href="#mbdd7f5e0ee" x="102.738876" y="138.266143" style="stroke: #000000"/>
     <use xlink:href="#mbdd7f5e0ee" x="102.738876" y="93.825549" style="stroke: #000000"/>
     <use xlink:href="#mbdd7f5e0ee" x="102.738876" y="60.452018" style="stroke: #000000"/>
     <use xlink:href="#mbdd7f5e0ee" x="102.738876" y="71.184571" style="stroke: #000000"/>
     <use xlink:href="#mbdd7f5e0ee" x="102.738876" y="106.041941" style="stroke: #000000"/>
     <use xlink:href="#mbdd7f5e0ee" x="102.738876" y="72.802898" style="stroke: #000000"/>
     <use xlink:href="#mbdd7f5e0ee" x="102.738876" y="134.451151" style="stroke: #000000"/>
     <use xlink:href="#mbdd7f5e0ee" x="102.738876" y="56.214152" style="stroke: #000000"/>
     <use xlink:href="#mbdd7f5e0ee" x="102.738876" y="120.262102" style="stroke: #000000"/>
     <use xlink:href="#mbdd7f5e0ee" x="102.738876" y="119.312283" style="stroke: #000000"/>
     <use xlink:href="#mbdd7f5e0ee" x="102.738876" y="77.817076" style="stroke: #000000"/>
     <use xlink:href="#mbdd7f5e0ee" x="102.738876" y="188.617073" style="stroke: #000000"/>
     <use xlink:href="#mbdd7f5e0ee" x="102.738876" y="145.438967" style="stroke: #000000"/>
     <use xlink:href="#mbdd7f5e0ee" x="102.738876" y="131.730277" style="stroke: #000000"/>
     <use xlink:href="#mbdd7f5e0ee" x="102.738876" y="50.653523" style="stroke: #000000"/>
     <use xlink:href="#mbdd7f5e0ee" x="102.738876" y="97.556776" style="stroke: #000000"/>
     <use xlink:href="#mbdd7f5e0ee" x="102.738876" y="99.965511" style="stroke: #000000"/>
     <use xlink:href="#mbdd7f5e0ee" x="102.738876" y="76.765706" style="stroke: #000000"/>
     <use xlink:href="#mbdd7f5e0ee" x="102.738876" y="78.245699" style="stroke: #000000"/>
     <use xlink:href="#mbdd7f5e0ee" x="102.738876" y="110.455387" style="stroke: #000000"/>
     <use xlink:href="#mbdd7f5e0ee" x="102.738876" y="195.439169" style="stroke: #000000"/>
    </g>
   </g>
   <g id="PathCollection_3">
    <g clip-path="url(#p8c1b1aa7a6)">
     <use xlink:href="#mbdd7f5e0ee" x="157.849729" y="107.552632" style="stroke: #000000"/>
     <use xlink:href="#mbdd7f5e0ee" x="157.849729" y="120.078983" style="stroke: #000000"/>
     <use xlink:href="#mbdd7f5e0ee" x="157.849729" y="150.012088" style="stroke: #000000"/>
     <use xlink:href="#mbdd7f5e0ee" x="157.849729" y="142.510136" style="stroke: #000000"/>
     <use xlink:href="#mbdd7f5e0ee" x="157.849729" y="133.547146" style="stroke: #000000"/>
     <use xlink:href="#mbdd7f5e0ee" x="157.849729" y="106.601112" style="stroke: #000000"/>
     <use xlink:href="#mbdd7f5e0ee" x="157.849729" y="188.932423" style="stroke: #000000"/>
     <use xlink:href="#mbdd7f5e0ee" x="157.849729" y="147.39969" style="stroke: #000000"/>
     <use xlink:href="#mbdd7f5e0ee" x="157.849729" y="89.939617" style="stroke: #000000"/>
     <use xlink:href="#mbdd7f5e0ee" x="157.849729" y="98.044044" style="stroke: #000000"/>
     <use xlink:href="#mbdd7f5e0ee" x="157.849729" y="129.942263" style="stroke: #000000"/>
     <use xlink:href="#mbdd7f5e0ee" x="157.849729" y="68.069849" style="stroke: #000000"/>
     <use xlink:href="#mbdd7f5e0ee" x="157.849729" y="95.680936" style="stroke: #000000"/>
     <use xlink:href="#mbdd7f5e0ee" x="157.849729" y="171.055985" style="stroke: #000000"/>
     <use xlink:href="#mbdd7f5e0ee" x="157.849729" y="191.182568" style="stroke: #000000"/>
     <use xlink:href="#mbdd7f5e0ee" x="157.849729" y="147.275725" style="stroke: #000000"/>
     <use xlink:href="#mbdd7f5e0ee" x="157.849729" y="102.289333" style="stroke: #000000"/>
     <use xlink:href="#mbdd7f5e0ee" x="157.849729" y="140.648903" style="stroke: #000000"/>
     <use xlink:href="#mbdd7f5e0ee" x="157.849729" y="181.400837" style="stroke: #000000"/>
     <use xlink:href="#mbdd7f5e0ee" x="157.849729" y="195.359124" style="stroke: #000000"/>
     <use xlink:href="#mbdd7f5e0ee" x="157.849729" y="152.960522" style="stroke: #000000"/>
     <use xlink:href="#mbdd7f5e0ee" x="157.849729" y="145.105715" style="stroke: #000000"/>
     <use xlink:href="#mbdd7f5e0ee" x="157.849729" y="186.706528" style="stroke: #000000"/>
     <use xlink:href="#mbdd7f5e0ee" x="157.849729" y="114.150849" style="stroke: #000000"/>
     <use xlink:href="#mbdd7f5e0ee" x="157.849729" y="83.953865" style="stroke: #000000"/>
     <use xlink:href="#mbdd7f5e0ee" x="157.849729" y="176.336238" style="stroke: #000000"/>
     <use xlink:href="#mbdd7f5e0ee" x="157.849729" y="165.763707" style="stroke: #000000"/>
     <use xlink:href="#mbdd7f5e0ee" x="157.849729" y="106.916103" style="stroke: #000000"/>
     <use xlink:href="#mbdd7f5e0ee" x="157.849729" y="96.36842" style="stroke: #000000"/>
     <use xlink:href="#mbdd7f5e0ee" x="157.849729" y="105.113148" style="stroke: #000000"/>
     <use xlink:href="#mbdd7f5e0ee" x="157.849729" y="185.704351" style="stroke: #000000"/>
     <use xlink:href="#mbdd7f5e0ee" x="157.849729" y="230.934753" style="stroke: #000000"/>
     <use xlink:href="#mbdd7f5e0ee" x="157.849729" y="174.095615" style="stroke: #000000"/>
     <use xlink:href="#mbdd7f5e0ee" x="157.849729" y="107.770908" style="stroke: #000000"/>
     <use xlink:href="#mbdd7f5e0ee" x="157.849729" y="111.580454" style="stroke: #000000"/>
     <use xlink:href="#mbdd7f5e0ee" x="157.849729" y="187.365966" style="stroke: #000000"/>
     <use xlink:href="#mbdd7f5e0ee" x="157.849729" y="124.866837" style="stroke: #000000"/>
     <use xlink:href="#mbdd7f5e0ee" x="157.849729" y="92.44005" style="stroke: #000000"/>
     <use xlink:href="#mbdd7f5e0ee" x="157.849729" y="150.168027" style="stroke: #000000"/>
     <use xlink:href="#mbdd7f5e0ee" x="157.849729" y="135.408339" style="stroke: #000000"/>
    </g>
   </g>
   <g id="PathCollection_4">
    <g clip-path="url(#p8c1b1aa7a6)">
     <use xlink:href="#mbdd7f5e0ee" x="212.960582" y="120.573561" style="stroke: #000000"/>
     <use xlink:href="#mbdd7f5e0ee" x="212.960582" y="180.829195" style="stroke: #000000"/>
     <use xlink:href="#mbdd7f5e0ee" x="212.960582" y="183.636274" style="stroke: #000000"/>
     <use xlink:href="#mbdd7f5e0ee" x="212.960582" y="178.547229" style="stroke: #000000"/>
     <use xlink:href="#mbdd7f5e0ee" x="212.960582" y="149.483794" style="stroke: #000000"/>
     <use xlink:href="#mbdd7f5e0ee" x="212.960582" y="117.057353" style="stroke: #000000"/>
     <use xlink:href="#mbdd7f5e0ee" x="212.960582" y="186.706528" style="stroke: #000000"/>
     <use xlink:href="#mbdd7f5e0ee" x="212.960582" y="188.560128" style="stroke: #000000"/>
     <use xlink:href="#mbdd7f5e0ee" x="212.960582" y="188.878425" style="stroke: #000000"/>
     <use xlink:href="#mbdd7f5e0ee" x="212.960582" y="141.258035" style="stroke: #000000"/>
     <use xlink:href="#mbdd7f5e0ee" x="212.960582" y="187.324133" style="stroke: #000000"/>
     <use xlink:href="#mbdd7f5e0ee" x="212.960582" y="109.992045" style="stroke: #000000"/>
     <use xlink:href="#mbdd7f5e0ee" x="212.960582" y="158.308427" style="stroke: #000000"/>
     <use xlink:href="#mbdd7f5e0ee" x="212.960582" y="157.436955" style="stroke: #000000"/>
     <use xlink:href="#mbdd7f5e0ee" x="212.960582" y="184.923669" style="stroke: #000000"/>
     <use xlink:href="#mbdd7f5e0ee" x="212.960582" y="160.023312" style="stroke: #000000"/>
     <use xlink:href="#mbdd7f5e0ee" x="212.960582" y="122.958036" style="stroke: #000000"/>
     <use xlink:href="#mbdd7f5e0ee" x="212.960582" y="189.064361" style="stroke: #000000"/>
     <use xlink:href="#mbdd7f5e0ee" x="212.960582" y="194.147404" style="stroke: #000000"/>
     <use xlink:href="#mbdd7f5e0ee" x="212.960582" y="184.883154" style="stroke: #000000"/>
     <use xlink:href="#mbdd7f5e0ee" x="212.960582" y="147.814932" style="stroke: #000000"/>
     <use xlink:href="#mbdd7f5e0ee" x="212.960582" y="116.581726" style="stroke: #000000"/>
     <use xlink:href="#mbdd7f5e0ee" x="212.960582" y="188.785495" style="stroke: #000000"/>
     <use xlink:href="#mbdd7f5e0ee" x="212.960582" y="189.250404" style="stroke: #000000"/>
     <use xlink:href="#mbdd7f5e0ee" x="212.960582" y="195.721681" style="stroke: #000000"/>
     <use xlink:href="#mbdd7f5e0ee" x="212.960582" y="163.961723" style="stroke: #000000"/>
     <use xlink:href="#mbdd7f5e0ee" x="212.960582" y="211.148991" style="stroke: #000000"/>
     <use xlink:href="#mbdd7f5e0ee" x="212.960582" y="172.221451" style="stroke: #000000"/>
     <use xlink:href="#mbdd7f5e0ee" x="212.960582" y="156.631243" style="stroke: #000000"/>
     <use xlink:href="#mbdd7f5e0ee" x="212.960582" y="205.489529" style="stroke: #000000"/>
     <use xlink:href="#mbdd7f5e0ee" x="212.960582" y="192.793094" style="stroke: #000000"/>
     <use xlink:href="#mbdd7f5e0ee" x="212.960582" y="196.987535" style="stroke: #000000"/>
     <use xlink:href="#mbdd7f5e0ee" x="212.960582" y="164.948232" style="stroke: #000000"/>
     <use xlink:href="#mbdd7f5e0ee" x="212.960582" y="168.104292" style="stroke: #000000"/>
     <use xlink:href="#mbdd7f5e0ee" x="212.960582" y="102.90209" style="stroke: #000000"/>
     <use xlink:href="#mbdd7f5e0ee" x="212.960582" y="218.608926" style="stroke: #000000"/>
     <use xlink:href="#mbdd7f5e0ee" x="212.960582" y="137.164884" style="stroke: #000000"/>
     <use xlink:href="#mbdd7f5e0ee" x="212.960582" y="124.502233" style="stroke: #000000"/>
     <use xlink:href="#mbdd7f5e0ee" x="212.960582" y="166.820975" style="stroke: #000000"/>
     <use xlink:href="#mbdd7f5e0ee" x="212.960582" y="207.83614" style="stroke: #000000"/>
    </g>
   </g>
   <g id="PathCollection_5">
    <g clip-path="url(#p8c1b1aa7a6)">
     <use xlink:href="#mbdd7f5e0ee" x="268.071434" y="208.703552" style="stroke: #000000"/>
     <use xlink:href="#mbdd7f5e0ee" x="268.071434" y="210.002621" style="stroke: #000000"/>
     <use xlink:href="#mbdd7f5e0ee" x="268.071434" y="200.858973" style="stroke: #000000"/>
     <use xlink:href="#mbdd7f5e0ee" x="268.071434" y="178.654419" style="stroke: #000000"/>
     <use xlink:href="#mbdd7f5e0ee" x="268.071434" y="212.058948" style="stroke: #000000"/>
     <use xlink:href="#mbdd7f5e0ee" x="268.071434" y="119.312283" style="stroke: #000000"/>
     <use xlink:href="#mbdd7f5e0ee" x="268.071434" y="228.166513" style="stroke: #000000"/>
     <use xlink:href="#mbdd7f5e0ee" x="268.071434" y="200.171536" style="stroke: #000000"/>
     <use xlink:href="#mbdd7f5e0ee" x="268.071434" y="224.64297" style="stroke: #000000"/>
     <use xlink:href="#mbdd7f5e0ee" x="268.071434" y="190.708301" style="stroke: #000000"/>
     <use xlink:href="#mbdd7f5e0ee" x="268.071434" y="162.192495" style="stroke: #000000"/>
     <use xlink:href="#mbdd7f5e0ee" x="268.071434" y="155.005953" style="stroke: #000000"/>
     <use xlink:href="#mbdd7f5e0ee" x="268.071434" y="170.710279" style="stroke: #000000"/>
     <use xlink:href="#mbdd7f5e0ee" x="268.071434" y="211.035364" style="stroke: #000000"/>
     <use xlink:href="#mbdd7f5e0ee" x="268.071434" y="187.988955" style="stroke: #000000"/>
     <use xlink:href="#mbdd7f5e0ee" x="268.071434" y="155.806277" style="stroke: #000000"/>
     <use xlink:href="#mbdd7f5e0ee" x="268.071434" y="188.79518" style="stroke: #000000"/>
     <use xlink:href="#mbdd7f5e0ee" x="268.071434" y="218.882464" style="stroke: #000000"/>
     <use xlink:href="#mbdd7f5e0ee" x="268.071434" y="196.223269" style="stroke: #000000"/>
     <use xlink:href="#mbdd7f5e0ee" x="268.071434" y="197.1444" style="stroke: #000000"/>
     <use xlink:href="#mbdd7f5e0ee" x="268.071434" y="196.183254" style="stroke: #000000"/>
     <use xlink:href="#mbdd7f5e0ee" x="268.071434" y="193.979597" style="stroke: #000000"/>
     <use xlink:href="#mbdd7f5e0ee" x="268.071434" y="168.740847" style="stroke: #000000"/>
     <use xlink:href="#mbdd7f5e0ee" x="268.071434" y="178.547229" style="stroke: #000000"/>
     <use xlink:href="#mbdd7f5e0ee" x="268.071434" y="230.388287" style="stroke: #000000"/>
     <use xlink:href="#mbdd7f5e0ee" x="268.071434" y="216.471995" style="stroke: #000000"/>
     <use xlink:href="#mbdd7f5e0ee" x="268.071434" y="231.923783" style="stroke: #000000"/>
     <use xlink:href="#mbdd7f5e0ee" x="268.071434" y="167.264274" style="stroke: #000000"/>
     <use xlink:href="#mbdd7f5e0ee" x="268.071434" y="218.335578" style="stroke: #000000"/>
     <use xlink:href="#mbdd7f5e0ee" x="268.071434" y="213.839512" style="stroke: #000000"/>
     <use xlink:href="#mbdd7f5e0ee" x="268.071434" y="240.49165" style="stroke: #000000"/>
     <use xlink:href="#mbdd7f5e0ee" x="268.071434" y="125.638093" style="stroke: #000000"/>
     <use xlink:href="#mbdd7f5e0ee" x="268.071434" y="176.842956" style="stroke: #000000"/>
     <use xlink:href="#mbdd7f5e0ee" x="268.071434" y="194.405187" style="stroke: #000000"/>
     <use xlink:href="#mbdd7f5e0ee" x="268.071434" y="207.887264" style="stroke: #000000"/>
     <use xlink:href="#mbdd7f5e0ee" x="268.071434" y="237.148267" style="stroke: #000000"/>
     <use xlink:href="#mbdd7f5e0ee" x="268.071434" y="187.238882" style="stroke: #000000"/>
     <use xlink:href="#mbdd7f5e0ee" x="268.071434" y="207.695918" style="stroke: #000000"/>
     <use xlink:href="#mbdd7f5e0ee" x="268.071434" y="184.582508" style="stroke: #000000"/>
     <use xlink:href="#mbdd7f5e0ee" x="268.071434" y="210.362805" style="stroke: #000000"/>
    </g>
   </g>
   <g id="PathCollection_6">
    <g clip-path="url(#p8c1b1aa7a6)">
     <use xlink:href="#mbdd7f5e0ee" x="323.182287" y="237.148267" style="stroke: #000000"/>
     <use xlink:href="#mbdd7f5e0ee" x="323.182287" y="212.47635" style="stroke: #000000"/>
     <use xlink:href="#mbdd7f5e0ee" x="323.182287" y="186.97516" style="stroke: #000000"/>
     <use xlink:href="#mbdd7f5e0ee" x="323.182287" y="170.792069" style="stroke: #000000"/>
     <use xlink:href="#mbdd7f5e0ee" x="323.182287" y="287.802182" style="stroke: #000000"/>
     <use xlink:href="#mbdd7f5e0ee" x="323.182287" y="213.793657" style="stroke: #000000"/>
     <use xlink:href="#mbdd7f5e0ee" x="323.182287" y="223.046461" style="stroke: #000000"/>
     <use xlink:href="#mbdd7f5e0ee" x="323.182287" y="247.946188" style="stroke: #000000"/>
     <use xlink:href="#mbdd7f5e0ee" x="323.182287" y="234.879732" style="stroke: #000000"/>
     <use xlink:href="#mbdd7f5e0ee" x="323.182287" y="193.791807" style="stroke: #000000"/>
     <use xlink:href="#mbdd7f5e0ee" x="323.182287" y="194.024898" style="stroke: #000000"/>
     <use xlink:href="#mbdd7f5e0ee" x="323.182287" y="192.951972" style="stroke: #000000"/>
     <use xlink:href="#mbdd7f5e0ee" x="323.182287" y="144.197042" style="stroke: #000000"/>
     <use xlink:href="#mbdd7f5e0ee" x="323.182287" y="230.713983" style="stroke: #000000"/>
     <use xlink:href="#mbdd7f5e0ee" x="323.182287" y="177.904362" style="stroke: #000000"/>
     <use xlink:href="#mbdd7f5e0ee" x="323.182287" y="179.6986" style="stroke: #000000"/>
     <use xlink:href="#mbdd7f5e0ee" x="323.182287" y="192.520094" style="stroke: #000000"/>
     <use xlink:href="#mbdd7f5e0ee" x="323.182287" y="227.753635" style="stroke: #000000"/>
     <use xlink:href="#mbdd7f5e0ee" x="323.182287" y="210.698706" style="stroke: #000000"/>
     <use xlink:href="#mbdd7f5e0ee" x="323.182287" y="204.774781" style="stroke: #000000"/>
     <use xlink:href="#mbdd7f5e0ee" x="323.182287" y="206.434324" style="stroke: #000000"/>
     <use xlink:href="#mbdd7f5e0ee" x="323.182287" y="251.362281" style="stroke: #000000"/>
     <use xlink:href="#mbdd7f5e0ee" x="323.182287" y="190.850267" style="stroke: #000000"/>
     <use xlink:href="#mbdd7f5e0ee" x="323.182287" y="185.486116" style="stroke: #000000"/>
     <use xlink:href="#mbdd7f5e0ee" x="323.182287" y="211.206163" style="stroke: #000000"/>
     <use xlink:href="#mbdd7f5e0ee" x="323.182287" y="203.567693" style="stroke: #000000"/>
     <use xlink:href="#mbdd7f5e0ee" x="323.182287" y="207.832525" style="stroke: #000000"/>
     <use xlink:href="#mbdd7f5e0ee" x="323.182287" y="179.6986" style="stroke: #000000"/>
     <use xlink:href="#mbdd7f5e0ee" x="323.182287" y="251.625515" style="stroke: #000000"/>
     <use xlink:href="#mbdd7f5e0ee" x="323.182287" y="263.779061" style="stroke: #000000"/>
     <use xlink:href="#mbdd7f5e0ee" x="323.182287" y="195.890859" style="stroke: #000000"/>
     <use xlink:href="#mbdd7f5e0ee" x="323.182287" y="199.193235" style="stroke: #000000"/>
     <use xlink:href="#mbdd7f5e0ee" x="323.182287" y="216.740537" style="stroke: #000000"/>
     <use xlink:href="#mbdd7f5e0ee" x="323.182287" y="203.113403" style="stroke: #000000"/>
     <use xlink:href="#mbdd7f5e0ee" x="323.182287" y="177.996497" style="stroke: #000000"/>
     <use xlink:href="#mbdd7f5e0ee" x="323.182287" y="230.106501" style="stroke: #000000"/>
     <use xlink:href="#mbdd7f5e0ee" x="323.182287" y="246.070955" style="stroke: #000000"/>
     <use xlink:href="#mbdd7f5e0ee" x="323.182287" y="279.959035" style="stroke: #000000"/>
     <use xlink:href="#mbdd7f5e0ee" x="323.182287" y="284.427461" style="stroke: #000000"/>
     <use xlink:href="#mbdd7f5e0ee" x="323.182287" y="230.808735" style="stroke: #000000"/>
    </g>
   </g>
   <g id="PathCollection_7">
    <defs>
     <path id="mdaf103d83c" d="M -3 3 
L 3 3 
L 3 -3 
L -3 -3 
z
" style="stroke: #000000"/>
    </defs>
    <g clip-path="url(#p8c1b1aa7a6)">
     <use xlink:href="#mdaf103d83c" x="47.628024" y="79.835295" style="stroke: #000000"/>
     <use xlink:href="#mdaf103d83c" x="102.738876" y="104.574516" style="stroke: #000000"/>
     <use xlink:href="#mdaf103d83c" x="157.849729" y="129.753256" style="stroke: #000000"/>
     <use xlink:href="#mdaf103d83c" x="212.960582" y="161.543657" style="stroke: #000000"/>
     <use xlink:href="#mdaf103d83c" x="268.071434" y="189.764926" style="stroke: #000000"/>
     <use xlink:href="#mdaf103d83c" x="323.182287" y="208.25948" style="stroke: #000000"/>
    </g>
   </g>
   <g id="matplotlib.axis_1">
    <g id="xtick_1">
     <g id="line2d_1">
      <defs>
       <path id="m1563acfa17" d="M 0 0 
L 0 3.5 
" style="stroke: #000000; stroke-width: 0.8"/>
      </defs>
      <g>
       <use xlink:href="#m1563acfa17" x="47.628024" y="301.16419" style="stroke: #000000; stroke-width: 0.8"/>
      </g>
     </g>
     <g id="text_1">
      <!-- $\mathdefault{2^{6}}$ -->
      <g transform="translate(41.705166 317.850067) scale(0.14 -0.14)">
       <defs>
        <path id="CMR17-32" d="M 2669 990 
L 2554 990 
C 2490 537 2438 460 2413 422 
C 2381 371 1920 371 1830 371 
L 602 371 
C 832 620 1280 1073 1824 1596 
C 2214 1966 2669 2400 2669 3033 
C 2669 3788 2067 4224 1395 4224 
C 691 4224 262 3603 262 3027 
C 262 2777 448 2745 525 2745 
C 589 2745 781 2783 781 3007 
C 781 3206 614 3264 525 3264 
C 486 3264 448 3257 422 3244 
C 544 3788 915 4057 1306 4057 
C 1862 4057 2227 3616 2227 3033 
C 2227 2477 1901 1998 1536 1583 
L 262 147 
L 262 0 
L 2515 0 
L 2669 990 
z
" transform="scale(0.015625)"/>
        <path id="CMR17-36" d="M 678 2198 
C 678 3712 1395 4076 1811 4076 
C 1946 4076 2272 4049 2400 3782 
C 2298 3782 2106 3782 2106 3558 
C 2106 3385 2246 3328 2336 3328 
C 2394 3328 2566 3353 2566 3571 
C 2566 3987 2246 4224 1805 4224 
C 1043 4224 243 3411 243 2011 
C 243 257 966 -128 1478 -128 
C 2099 -128 2688 431 2688 1295 
C 2688 2101 2170 2688 1517 2688 
C 1126 2688 838 2430 678 1979 
L 678 2198 
z
M 1478 25 
C 691 25 691 1212 691 1450 
C 691 1914 909 2585 1504 2585 
C 1613 2585 1926 2585 2138 2140 
C 2253 1889 2253 1624 2253 1302 
C 2253 954 2253 696 2118 438 
C 1978 173 1773 25 1478 25 
z
" transform="scale(0.015625)"/>
       </defs>
       <use xlink:href="#CMR17-32" transform="scale(0.996264)"/>
       <use xlink:href="#CMR17-36" transform="translate(45.690477 36.153639) scale(0.697382)"/>
      </g>
     </g>
    </g>
    <g id="xtick_2">
     <g id="line2d_2">
      <g>
       <use xlink:href="#m1563acfa17" x="102.738876" y="301.16419" style="stroke: #000000; stroke-width: 0.8"/>
      </g>
     </g>
     <g id="text_2">
      <!-- $\mathdefault{2^{7}}$ -->
      <g transform="translate(96.816019 317.850067) scale(0.14 -0.14)">
       <defs>
        <path id="CMR17-37" d="M 2886 3955 
L 2886 4096 
L 1382 4096 
C 634 4096 621 4166 595 4288 
L 480 4288 
L 294 3104 
L 410 3104 
C 429 3226 474 3552 550 3673 
C 589 3724 1062 3724 1171 3724 
L 2579 3724 
L 1869 2670 
C 1395 1961 1069 1003 1069 166 
C 1069 89 1069 -128 1299 -128 
C 1530 -128 1530 89 1530 172 
L 1530 466 
C 1530 1514 1709 2204 2003 2644 
L 2886 3955 
z
" transform="scale(0.015625)"/>
       </defs>
       <use xlink:href="#CMR17-32" transform="scale(0.996264)"/>
       <use xlink:href="#CMR17-37" transform="translate(45.690477 36.153639) scale(0.697382)"/>
      </g>
     </g>
    </g>
    <g id="xtick_3">
     <g id="line2d_3">
      <g>
       <use xlink:href="#m1563acfa17" x="157.849729" y="301.16419" style="stroke: #000000; stroke-width: 0.8"/>
      </g>
     </g>
     <g id="text_3">
      <!-- $\mathdefault{2^{8}}$ -->
      <g transform="translate(151.926871 317.850067) scale(0.14 -0.14)">
       <defs>
        <path id="CMR17-38" d="M 1741 2289 
C 2144 2494 2554 2803 2554 3298 
C 2554 3884 1990 4224 1472 4224 
C 890 4224 378 3800 378 3215 
C 378 3054 416 2777 666 2533 
C 730 2469 998 2276 1171 2154 
C 883 2006 211 1652 211 945 
C 211 282 838 -128 1459 -128 
C 2144 -128 2720 366 2720 1022 
C 2720 1607 2330 1877 2074 2051 
L 1741 2289 
z
M 902 2855 
C 851 2887 595 3086 595 3388 
C 595 3781 998 4076 1459 4076 
C 1965 4076 2336 3716 2336 3298 
C 2336 2700 1670 2359 1638 2359 
C 1632 2359 1626 2359 1574 2398 
L 902 2855 
z
M 2080 1536 
C 2176 1466 2483 1253 2483 861 
C 2483 385 2010 25 1472 25 
C 890 25 448 443 448 951 
C 448 1459 838 1884 1280 2083 
L 2080 1536 
z
" transform="scale(0.015625)"/>
       </defs>
       <use xlink:href="#CMR17-32" transform="scale(0.996264)"/>
       <use xlink:href="#CMR17-38" transform="translate(45.690477 36.153639) scale(0.697382)"/>
      </g>
     </g>
    </g>
    <g id="xtick_4">
     <g id="line2d_4">
      <g>
       <use xlink:href="#m1563acfa17" x="212.960582" y="301.16419" style="stroke: #000000; stroke-width: 0.8"/>
      </g>
     </g>
     <g id="text_4">
      <!-- $\mathdefault{2^{9}}$ -->
      <g transform="translate(207.037724 317.850067) scale(0.14 -0.14)">
       <defs>
        <path id="CMR17-39" d="M 2253 1871 
C 2253 448 1670 25 1190 25 
C 1043 25 685 43 538 281 
C 704 256 826 345 826 505 
C 826 678 685 736 595 736 
C 538 736 365 710 365 492 
C 365 68 742 -128 1203 -128 
C 1939 -128 2688 665 2688 2090 
C 2688 3857 1971 4224 1485 4224 
C 851 4224 243 3664 243 2800 
C 243 2000 762 1408 1414 1408 
C 1952 1408 2189 1910 2253 2122 
L 2253 1871 
z
M 1427 1510 
C 1254 1510 1011 1542 813 1929 
C 678 2181 678 2477 678 2793 
C 678 3174 678 3438 858 3722 
C 947 3857 1114 4076 1485 4076 
C 2240 4076 2240 2909 2240 2651 
C 2240 2193 2035 1510 1427 1510 
z
" transform="scale(0.015625)"/>
       </defs>
       <use xlink:href="#CMR17-32" transform="scale(0.996264)"/>
       <use xlink:href="#CMR17-39" transform="translate(45.690477 36.153639) scale(0.697382)"/>
      </g>
     </g>
    </g>
    <g id="xtick_5">
     <g id="line2d_5">
      <g>
       <use xlink:href="#m1563acfa17" x="268.071434" y="301.16419" style="stroke: #000000; stroke-width: 0.8"/>
      </g>
     </g>
     <g id="text_5">
      <!-- $\mathdefault{2^{10}}$ -->
      <g transform="translate(259.639963 317.850067) scale(0.14 -0.14)">
       <defs>
        <path id="CMR17-31" d="M 1702 4083 
C 1702 4217 1696 4224 1606 4224 
C 1357 3927 979 3833 621 3820 
C 602 3820 570 3820 563 3808 
C 557 3795 557 3782 557 3648 
C 755 3648 1088 3686 1344 3839 
L 1344 467 
C 1344 243 1331 166 781 166 
L 589 166 
L 589 0 
C 896 6 1216 12 1523 12 
C 1830 12 2150 6 2458 0 
L 2458 166 
L 2266 166 
C 1715 166 1702 236 1702 467 
L 1702 4083 
z
" transform="scale(0.015625)"/>
        <path id="CMR17-30" d="M 2688 2038 
C 2688 2430 2682 3099 2413 3613 
C 2176 4063 1798 4224 1466 4224 
C 1158 4224 768 4082 525 3620 
C 269 3137 243 2539 243 2038 
C 243 1671 250 1112 448 623 
C 723 -39 1216 -128 1466 -128 
C 1760 -128 2208 -7 2470 604 
C 2662 1048 2688 1568 2688 2038 
z
M 1466 -26 
C 1056 -26 813 328 723 816 
C 653 1196 653 1749 653 2109 
C 653 2604 653 3015 736 3407 
C 858 3954 1216 4121 1466 4121 
C 1728 4121 2067 3947 2189 3420 
C 2272 3054 2278 2623 2278 2109 
C 2278 1691 2278 1176 2202 797 
C 2067 96 1690 -26 1466 -26 
z
" transform="scale(0.015625)"/>
       </defs>
       <use xlink:href="#CMR17-32" transform="scale(0.996264)"/>
       <use xlink:href="#CMR17-31" transform="translate(45.690477 36.153639) scale(0.697382)"/>
       <use xlink:href="#CMR17-30" transform="translate(77.673659 36.153639) scale(0.697382)"/>
      </g>
     </g>
    </g>
    <g id="xtick_6">
     <g id="line2d_6">
      <g>
       <use xlink:href="#m1563acfa17" x="323.182287" y="301.16419" style="stroke: #000000; stroke-width: 0.8"/>
      </g>
     </g>
     <g id="text_6">
      <!-- $\mathdefault{2^{11}}$ -->
      <g transform="translate(314.750816 317.850067) scale(0.14 -0.14)">
       <use xlink:href="#CMR17-32" transform="scale(0.996264)"/>
       <use xlink:href="#CMR17-31" transform="translate(45.690477 36.153639) scale(0.697382)"/>
       <use xlink:href="#CMR17-31" transform="translate(77.673659 36.153639) scale(0.697382)"/>
      </g>
     </g>
    </g>
    <g id="text_7">
     <!-- $N$ -->
     <g transform="translate(179.937097 334.247972) scale(0.14 -0.14)">
      <defs>
       <path id="CMMI12-4e" d="M 4736 3682 
C 4806 3956 4909 4147 5395 4166 
C 5414 4166 5491 4172 5491 4281 
C 5491 4352 5434 4352 5408 4352 
C 5280 4352 4954 4339 4826 4339 
L 4518 4339 
C 4429 4339 4314 4352 4224 4352 
C 4186 4352 4109 4352 4109 4230 
C 4109 4166 4160 4166 4205 4166 
C 4589 4153 4614 4007 4614 3892 
C 4614 3835 4608 3816 4589 3726 
L 3866 854 
L 2496 4243 
C 2451 4345 2445 4352 2304 4352 
L 1523 4352 
C 1395 4352 1338 4352 1338 4230 
C 1338 4166 1382 4166 1504 4166 
C 1536 4166 1914 4166 1914 4109 
C 1914 4096 1901 4045 1894 4026 
L 1043 650 
C 966 338 813 204 390 185 
C 358 185 294 179 294 64 
C 294 0 358 0 378 0 
C 506 0 832 12 960 12 
L 1267 12 
C 1357 12 1466 0 1555 0 
C 1600 0 1670 0 1670 121 
C 1670 179 1606 185 1581 185 
C 1370 191 1165 230 1165 459 
C 1165 510 1178 567 1190 618 
L 2054 4026 
C 2093 3962 2093 3949 2118 3892 
L 3642 115 
C 3674 38 3686 0 3744 0 
C 3808 0 3814 19 3840 128 
L 4736 3682 
z
" transform="scale(0.015625)"/>
      </defs>
      <use xlink:href="#CMMI12-4e" transform="scale(0.996264)"/>
     </g>
    </g>
   </g>
   <g id="matplotlib.axis_2">
    <g id="ytick_1">
     <g id="line2d_7">
      <defs>
       <path id="m2467e685b0" d="M 0 0 
L -3.5 0 
" style="stroke: #000000; stroke-width: 0.8"/>
      </defs>
      <g>
       <use xlink:href="#m2467e685b0" x="33.85031" y="290.071894" style="stroke: #000000; stroke-width: 0.8"/>
      </g>
     </g>
     <g id="text_8">
      <!-- $\mathdefault{2^{-8}}$ -->
      <g transform="translate(7.2 294.914832) scale(0.14 -0.14)">
       <defs>
        <path id="CMSY10-0" d="M 4218 1472 
C 4326 1472 4442 1472 4442 1600 
C 4442 1728 4326 1728 4218 1728 
L 755 1728 
C 646 1728 531 1728 531 1600 
C 531 1472 646 1472 755 1472 
L 4218 1472 
z
" transform="scale(0.015625)"/>
       </defs>
       <use xlink:href="#CMR17-32" transform="scale(0.996264)"/>
       <use xlink:href="#CMSY10-0" transform="translate(45.690477 36.153639) scale(0.697382)"/>
       <use xlink:href="#CMR17-38" transform="translate(99.93147 36.153639) scale(0.697382)"/>
      </g>
     </g>
    </g>
    <g id="ytick_2">
     <g id="line2d_8">
      <g>
       <use xlink:href="#m2467e685b0" x="33.85031" y="237.188455" style="stroke: #000000; stroke-width: 0.8"/>
      </g>
     </g>
     <g id="text_9">
      <!-- $\mathdefault{2^{-7}}$ -->
      <g transform="translate(7.2 242.031393) scale(0.14 -0.14)">
       <use xlink:href="#CMR17-32" transform="scale(0.996264)"/>
       <use xlink:href="#CMSY10-0" transform="translate(45.690477 36.153639) scale(0.697382)"/>
       <use xlink:href="#CMR17-37" transform="translate(99.93147 36.153639) scale(0.697382)"/>
      </g>
     </g>
    </g>
    <g id="ytick_3">
     <g id="line2d_9">
      <g>
       <use xlink:href="#m2467e685b0" x="33.85031" y="184.305016" style="stroke: #000000; stroke-width: 0.8"/>
      </g>
     </g>
     <g id="text_10">
      <!-- $\mathdefault{2^{-6}}$ -->
      <g transform="translate(7.2 189.147955) scale(0.14 -0.14)">
       <use xlink:href="#CMR17-32" transform="scale(0.996264)"/>
       <use xlink:href="#CMSY10-0" transform="translate(45.690477 36.153639) scale(0.697382)"/>
       <use xlink:href="#CMR17-36" transform="translate(99.93147 36.153639) scale(0.697382)"/>
      </g>
     </g>
    </g>
    <g id="ytick_4">
     <g id="line2d_10">
      <g>
       <use xlink:href="#m2467e685b0" x="33.85031" y="131.421577" style="stroke: #000000; stroke-width: 0.8"/>
      </g>
     </g>
     <g id="text_11">
      <!-- $\mathdefault{2^{-5}}$ -->
      <g transform="translate(7.2 136.264516) scale(0.14 -0.14)">
       <defs>
        <path id="CMR17-35" d="M 730 3750 
C 794 3724 1056 3641 1325 3641 
C 1920 3641 2246 3961 2432 4140 
C 2432 4191 2432 4224 2394 4224 
C 2387 4224 2374 4224 2323 4198 
C 2099 4102 1837 4032 1517 4032 
C 1325 4032 1037 4055 723 4191 
C 653 4224 640 4224 634 4224 
C 602 4224 595 4217 595 4090 
L 595 2231 
C 595 2113 595 2080 659 2080 
C 691 2080 704 2093 736 2139 
C 941 2435 1222 2560 1542 2560 
C 1766 2560 2246 2415 2246 1293 
C 2246 1087 2246 716 2054 422 
C 1894 159 1645 25 1370 25 
C 947 25 518 319 403 812 
C 429 806 480 793 506 793 
C 589 793 749 838 749 1036 
C 749 1209 627 1280 506 1280 
C 358 1280 262 1190 262 1011 
C 262 454 704 -128 1382 -128 
C 2042 -128 2669 441 2669 1267 
C 2669 2054 2170 2662 1549 2662 
C 1222 2662 947 2540 730 2304 
L 730 3750 
z
" transform="scale(0.015625)"/>
       </defs>
       <use xlink:href="#CMR17-32" transform="scale(0.996264)"/>
       <use xlink:href="#CMSY10-0" transform="translate(45.690477 36.153639) scale(0.697382)"/>
       <use xlink:href="#CMR17-35" transform="translate(99.93147 36.153639) scale(0.697382)"/>
      </g>
     </g>
    </g>
    <g id="ytick_5">
     <g id="line2d_11">
      <g>
       <use xlink:href="#m2467e685b0" x="33.85031" y="78.538139" style="stroke: #000000; stroke-width: 0.8"/>
      </g>
     </g>
     <g id="text_12">
      <!-- $\mathdefault{2^{-4}}$ -->
      <g transform="translate(7.2 83.381077) scale(0.14 -0.14)">
       <defs>
        <path id="CMR17-34" d="M 2150 4147 
C 2150 4281 2144 4288 2029 4288 
L 128 1254 
L 128 1088 
L 1779 1088 
L 1779 460 
C 1779 230 1766 166 1318 166 
L 1197 166 
L 1197 0 
C 1402 12 1747 12 1965 12 
C 2182 12 2528 12 2733 0 
L 2733 166 
L 2611 166 
C 2163 166 2150 230 2150 460 
L 2150 1088 
L 2803 1088 
L 2803 1254 
L 2150 1254 
L 2150 4147 
z
M 1798 3723 
L 1798 1254 
L 256 1254 
L 1798 3723 
z
" transform="scale(0.015625)"/>
       </defs>
       <use xlink:href="#CMR17-32" transform="scale(0.996264)"/>
       <use xlink:href="#CMSY10-0" transform="translate(45.690477 36.153639) scale(0.697382)"/>
       <use xlink:href="#CMR17-34" transform="translate(99.93147 36.153639) scale(0.697382)"/>
      </g>
     </g>
    </g>
    <g id="ytick_6">
     <g id="line2d_12">
      <g>
       <use xlink:href="#m2467e685b0" x="33.85031" y="25.6547" style="stroke: #000000; stroke-width: 0.8"/>
      </g>
     </g>
     <g id="text_13">
      <!-- $\mathdefault{2^{-3}}$ -->
      <g transform="translate(7.2 30.497638) scale(0.14 -0.14)">
       <defs>
        <path id="CMR17-33" d="M 1414 2176 
C 1984 2176 2234 1673 2234 1094 
C 2234 322 1824 25 1453 25 
C 1114 25 563 193 390 691 
C 422 678 454 678 486 678 
C 640 678 755 780 755 947 
C 755 1132 614 1216 486 1216 
C 378 1216 211 1164 211 927 
C 211 335 787 -128 1466 -128 
C 2176 -128 2720 432 2720 1087 
C 2720 1718 2208 2176 1600 2246 
C 2086 2347 2554 2776 2554 3353 
C 2554 3856 2048 4224 1472 4224 
C 890 4224 378 3862 378 3347 
C 378 3123 544 3084 627 3084 
C 762 3084 877 3167 877 3334 
C 877 3500 762 3584 627 3584 
C 602 3584 570 3584 544 3571 
C 730 3999 1235 4076 1459 4076 
C 1683 4076 2106 3966 2106 3347 
C 2106 3167 2080 2851 1862 2574 
C 1670 2329 1453 2316 1242 2297 
C 1210 2297 1062 2284 1037 2284 
C 992 2278 966 2272 966 2227 
C 966 2182 973 2176 1101 2176 
L 1414 2176 
z
" transform="scale(0.015625)"/>
       </defs>
       <use xlink:href="#CMR17-32" transform="scale(0.996264)"/>
       <use xlink:href="#CMSY10-0" transform="translate(45.690477 36.153639) scale(0.697382)"/>
       <use xlink:href="#CMR17-33" transform="translate(99.93147 36.153639) scale(0.697382)"/>
      </g>
     </g>
    </g>
   </g>
   <g id="line2d_13"/>
   <g id="line2d_14">
    <path d="M 47.628024 79.230244 
L 102.738876 105.786889 
L 157.849729 132.343533 
L 212.960582 158.900177 
L 268.071434 185.456822 
L 323.182287 212.013466 
" clip-path="url(#p8c1b1aa7a6)" style="fill: none; stroke-dasharray: 3.7,1.6; stroke-dashoffset: 0; stroke: #000000"/>
   </g>
   <g id="patch_3">
    <path d="M 33.85031 301.16419 
L 33.85031 7.2 
" style="fill: none; stroke: #000000; stroke-width: 0.8; stroke-linejoin: miter; stroke-linecap: square"/>
   </g>
   <g id="patch_4">
    <path d="M 336.96 301.16419 
L 336.96 7.2 
" style="fill: none; stroke: #000000; stroke-width: 0.8; stroke-linejoin: miter; stroke-linecap: square"/>
   </g>
   <g id="patch_5">
    <path d="M 33.85031 301.16419 
L 336.96 301.16419 
" style="fill: none; stroke: #000000; stroke-width: 0.8; stroke-linejoin: miter; stroke-linecap: square"/>
   </g>
   <g id="patch_6">
    <path d="M 33.85031 7.2 
L 336.96 7.2 
" style="fill: none; stroke: #000000; stroke-width: 0.8; stroke-linejoin: miter; stroke-linecap: square"/>
   </g>
   <g id="legend_1">
    <g id="patch_7">
     <path d="M 193.074216 100.791666 
L 327.16 100.791666 
Q 329.96 100.791666 329.96 97.991666 
L 329.96 17 
Q 329.96 14.2 327.16 14.2 
L 193.074216 14.2 
Q 190.274216 14.2 190.274216 17 
L 190.274216 97.991666 
Q 190.274216 100.791666 193.074216 100.791666 
z
" style="fill: #ffffff; stroke: #cccccc; stroke-linejoin: miter"/>
    </g>
    <g id="line2d_15"/>
    <g id="text_14">
     <!-- ($n=64$) -->
     <g transform="translate(235.074216 30.260772) scale(0.14 -0.14)">
      <defs>
       <path id="CMR17-28" d="M 1958 -1562 
C 1958 -1556 1958 -1543 1939 -1524 
C 1645 -1223 858 -403 858 1596 
C 858 3595 1632 4408 1946 4729 
C 1946 4735 1958 4748 1958 4767 
C 1958 4787 1939 4800 1914 4800 
C 1843 4800 1299 4325 986 3620 
C 666 2909 576 2218 576 1603 
C 576 1141 621 360 1005 -467 
C 1312 -1133 1837 -1600 1914 -1600 
C 1946 -1600 1958 -1588 1958 -1562 
z
" transform="scale(0.015625)"/>
       <path id="CMMI12-6e" d="M 1318 1870 
C 1331 1909 1491 2228 1728 2432 
C 1894 2585 2112 2687 2362 2687 
C 2618 2687 2707 2496 2707 2241 
C 2707 1877 2445 1149 2317 804 
C 2259 651 2227 568 2227 453 
C 2227 166 2426 -64 2733 -64 
C 3328 -64 3552 874 3552 913 
C 3552 945 3526 970 3488 970 
C 3430 970 3424 951 3392 842 
C 3245 319 3002 64 2752 64 
C 2688 64 2586 70 2586 274 
C 2586 434 2656 625 2694 715 
C 2822 1066 3091 1781 3091 2145 
C 3091 2528 2867 2816 2381 2816 
C 1811 2816 1510 2413 1395 2253 
C 1376 2617 1114 2816 832 2816 
C 627 2816 486 2694 378 2477 
C 262 2247 173 1864 173 1838 
C 173 1813 198 1781 243 1781 
C 294 1781 301 1787 339 1934 
C 442 2324 557 2687 813 2687 
C 960 2687 1011 2585 1011 2394 
C 1011 2253 947 2004 902 1807 
L 723 1117 
C 698 996 627 708 595 593 
C 550 427 480 127 480 95 
C 480 6 550 -64 646 -64 
C 723 -64 813 -26 864 70 
C 877 102 934 325 966 453 
L 1107 1028 
L 1318 1870 
z
" transform="scale(0.015625)"/>
       <path id="CMR17-3d" d="M 4115 2048 
C 4211 2048 4307 2048 4307 2156 
C 4307 2272 4198 2272 4090 2272 
L 512 2272 
C 403 2272 294 2272 294 2156 
C 294 2048 390 2048 486 2048 
L 4115 2048 
z
M 4090 927 
C 4198 927 4307 927 4307 1043 
C 4307 1152 4211 1152 4115 1152 
L 486 1152 
C 390 1152 294 1152 294 1043 
C 294 927 403 927 512 927 
L 4090 927 
z
" transform="scale(0.015625)"/>
       <path id="CMR17-29" d="M 1683 1596 
C 1683 2057 1638 2839 1254 3665 
C 947 4332 422 4800 346 4800 
C 326 4800 301 4793 301 4761 
C 301 4748 307 4742 314 4729 
C 621 4408 1402 3595 1402 1603 
C 1402 -396 627 -1210 314 -1530 
C 307 -1543 301 -1549 301 -1562 
C 301 -1594 326 -1600 346 -1600 
C 416 -1600 960 -1127 1274 -422 
C 1594 289 1683 981 1683 1596 
z
" transform="scale(0.015625)"/>
      </defs>
      <use xlink:href="#CMR17-28" transform="scale(0.996264)"/>
      <use xlink:href="#CMMI12-6e" transform="translate(35.280768 0) scale(0.996264)"/>
      <use xlink:href="#CMR17-3d" transform="translate(121.184824 0) scale(0.996264)"/>
      <use xlink:href="#CMR17-36" transform="translate(220.573621 0) scale(0.996264)"/>
      <use xlink:href="#CMR17-34" transform="translate(266.264098 0) scale(0.996264)"/>
      <use xlink:href="#CMR17-29" transform="translate(311.954575 0) scale(0.996264)"/>
     </g>
    </g>
    <g id="PathCollection_8">
     <g>
      <use xlink:href="#mbdd7f5e0ee" x="209.874216" y="47.533468" style="stroke: #000000"/>
     </g>
    </g>
    <g id="text_15">
     <!-- $\|u_N^* - u^*\|_{L^1(D)}$ -->
     <g transform="translate(235.074216 51.208468) scale(0.14 -0.14)">
      <defs>
       <path id="CMSY10-6b" d="M 1101 4582 
C 1101 4684 1101 4800 973 4800 
C 845 4800 845 4659 845 4563 
L 845 -1364 
C 845 -1466 845 -1600 973 -1600 
C 1101 -1600 1101 -1485 1101 -1383 
L 1101 4582 
z
M 2349 4563 
C 2349 4665 2349 4800 2221 4800 
C 2093 4800 2093 4684 2093 4582 
L 2093 -1383 
C 2093 -1485 2093 -1600 2221 -1600 
C 2349 -1600 2349 -1460 2349 -1364 
L 2349 4563 
z
" transform="scale(0.015625)"/>
       <path id="CMMI12-75" d="M 2182 370 
C 2266 12 2573 -64 2726 -64 
C 2931 -64 3085 70 3187 287 
C 3296 517 3379 893 3379 913 
C 3379 944 3354 970 3315 970 
C 3258 970 3251 938 3226 842 
C 3110 402 2995 64 2739 64 
C 2547 64 2547 274 2547 357 
C 2547 504 2566 568 2630 836 
C 2675 1008 2720 1181 2758 1359 
L 3021 2400 
C 3066 2560 3066 2572 3066 2591 
C 3066 2687 2989 2752 2893 2752 
C 2707 2752 2662 2591 2624 2432 
C 2560 2183 2214 810 2170 587 
C 2163 587 1914 64 1446 64 
C 1114 64 1050 351 1050 587 
C 1050 951 1229 1462 1395 1890 
C 1472 2094 1504 2177 1504 2305 
C 1504 2579 1306 2816 998 2816 
C 410 2816 173 1890 173 1838 
C 173 1813 198 1781 243 1781 
C 301 1781 307 1807 333 1896 
C 486 2445 736 2687 979 2687 
C 1043 2687 1146 2681 1146 2477 
C 1146 2311 1075 2126 979 1883 
C 698 1123 666 881 666 689 
C 666 38 1158 -64 1421 -64 
C 1830 -64 2054 217 2182 370 
z
" transform="scale(0.015625)"/>
       <path id="CMSY10-3" d="M 1760 2762 
C 1766 2853 1766 3008 1600 3008 
C 1498 3008 1414 2924 1434 2840 
L 1434 2755 
L 1523 1740 
L 704 2349 
C 646 2382 634 2395 589 2395 
C 499 2395 416 2303 416 2212 
C 416 2107 480 2081 544 2048 
L 1453 1603 
L 570 1164 
C 467 1112 416 1085 416 987 
C 416 889 499 804 589 804 
C 634 804 646 804 806 928 
L 1523 1459 
L 1427 359 
C 1427 224 1542 192 1594 192 
C 1670 192 1766 236 1766 359 
L 1670 1459 
L 2490 850 
C 2547 817 2560 804 2605 804 
C 2694 804 2778 896 2778 987 
C 2778 1085 2720 1118 2643 1157 
C 2259 1354 2246 1354 1741 1596 
L 2624 2035 
C 2726 2087 2778 2113 2778 2212 
C 2778 2310 2694 2395 2605 2395 
C 2560 2395 2547 2395 2387 2271 
L 1670 1740 
L 1760 2762 
z
" transform="scale(0.015625)"/>
       <path id="CMMI12-4c" d="M 2349 3860 
C 2406 4102 2426 4166 2989 4166 
C 3162 4166 3206 4166 3206 4287 
C 3206 4352 3136 4352 3110 4352 
C 2982 4352 2835 4339 2707 4339 
L 1850 4339 
C 1728 4339 1587 4352 1466 4352 
C 1414 4352 1344 4352 1344 4230 
C 1344 4166 1402 4166 1498 4166 
C 1888 4166 1888 4115 1888 4045 
C 1888 4032 1888 3994 1862 3898 
L 998 472 
C 941 249 928 185 480 185 
C 358 185 294 185 294 70 
C 294 0 333 0 461 0 
L 3328 0 
C 3469 0 3475 6 3520 121 
L 4013 1478 
C 4026 1510 4038 1548 4038 1567 
C 4038 1605 4006 1631 3974 1631 
C 3968 1631 3936 1631 3923 1605 
C 3910 1599 3910 1586 3859 1465 
C 3654 905 3366 185 2285 185 
L 1670 185 
C 1581 185 1568 185 1530 191 
C 1459 198 1453 211 1453 262 
C 1453 306 1466 344 1478 402 
L 2349 3860 
z
" transform="scale(0.015625)"/>
       <path id="CMMI12-44" d="M 1005 472 
C 947 249 934 185 486 185 
C 365 185 301 185 301 70 
C 301 0 339 0 467 0 
L 2496 0 
C 3789 0 5050 1332 5050 2752 
C 5050 3669 4499 4352 3584 4352 
L 1530 4352 
C 1408 4352 1350 4352 1350 4230 
C 1350 4166 1408 4166 1504 4166 
C 1894 4166 1894 4115 1894 4045 
C 1894 4032 1894 3994 1869 3898 
L 1005 472 
z
M 2355 3917 
C 2413 4153 2438 4166 2688 4166 
L 3392 4166 
C 3994 4166 4544 3841 4544 2962 
C 4544 2644 4416 1535 3795 835 
C 3616 625 3130 185 2394 185 
L 1664 185 
C 1574 185 1562 185 1523 191 
C 1453 198 1446 211 1446 262 
C 1446 306 1459 344 1472 402 
L 2355 3917 
z
" transform="scale(0.015625)"/>
      </defs>
      <use xlink:href="#CMSY10-6b" transform="scale(0.996264)"/>
      <use xlink:href="#CMMI12-75" transform="translate(49.813383 0) scale(0.996264)"/>
      <use xlink:href="#CMSY10-3" transform="translate(105.333713 36.153639) scale(0.697382)"/>
      <use xlink:href="#CMMI12-4e" transform="translate(105.333713 -27.44057) scale(0.697382)"/>
      <use xlink:href="#CMSY10-0" transform="translate(189.936025 0) scale(0.996264)"/>
      <use xlink:href="#CMMI12-75" transform="translate(289.562699 0) scale(0.996264)"/>
      <use xlink:href="#CMSY10-3" transform="translate(345.083029 36.153639) scale(0.697382)"/>
      <use xlink:href="#CMSY10-6b" transform="translate(380.450371 0) scale(0.996264)"/>
      <use xlink:href="#CMMI12-4c" transform="translate(430.263754 -17.940992) scale(0.697382)"/>
      <use xlink:href="#CMR17-31" transform="translate(476.723168 2.205581) scale(0.498132)"/>
      <use xlink:href="#CMR17-28" transform="translate(500.066538 -17.940992) scale(0.697382)"/>
      <use xlink:href="#CMMI12-44" transform="translate(524.762959 -17.940992) scale(0.697382)"/>
      <use xlink:href="#CMR17-29" transform="translate(583.355462 -17.940992) scale(0.697382)"/>
     </g>
    </g>
    <g id="PathCollection_9">
     <g>
      <use xlink:href="#mdaf103d83c" x="209.874216" y="69.292609" style="stroke: #000000"/>
     </g>
    </g>
    <g id="text_16">
     <!-- mean -->
     <g transform="translate(235.074216 72.967609) scale(0.14 -0.14)">
      <defs>
       <path id="CMR17-6d" d="M 4326 1954 
C 4326 2276 4269 2816 3507 2816 
C 3072 2816 2771 2520 2656 2173 
L 2650 2173 
C 2573 2700 2195 2816 1837 2816 
C 1331 2816 1069 2424 973 2166 
L 966 2166 
L 966 2816 
L 211 2745 
L 211 2578 
C 589 2578 646 2540 646 2231 
L 646 443 
C 646 198 621 166 211 166 
L 211 0 
C 365 12 646 12 813 12 
C 979 12 1267 12 1421 0 
L 1421 166 
C 1011 166 986 192 986 443 
L 986 1678 
C 986 2269 1344 2713 1792 2713 
C 2266 2713 2317 2289 2317 1980 
L 2317 443 
C 2317 198 2291 166 1882 166 
L 1882 0 
C 2035 12 2317 12 2483 12 
C 2650 12 2938 12 3091 0 
L 3091 166 
C 2682 166 2656 192 2656 443 
L 2656 1678 
C 2656 2269 3014 2713 3462 2713 
C 3936 2713 3987 2289 3987 1980 
L 3987 443 
C 3987 198 3962 166 3552 166 
L 3552 0 
C 3706 12 3987 12 4154 12 
C 4320 12 4608 12 4762 0 
L 4762 166 
C 4352 166 4326 192 4326 443 
L 4326 1954 
z
" transform="scale(0.015625)"/>
       <path id="CMR17-65" d="M 2438 1503 
C 2464 1529 2464 1542 2464 1606 
C 2464 2251 2118 2816 1389 2816 
C 710 2816 173 2175 173 1394 
C 173 554 781 -64 1459 -64 
C 2176 -64 2458 619 2458 755 
C 2458 800 2419 800 2406 800 
C 2362 800 2355 787 2330 709 
C 2189 270 1837 51 1504 51 
C 1229 51 954 206 781 490 
C 582 819 582 1200 582 1503 
L 2438 1503 
z
M 589 1600 
C 634 2511 1126 2713 1382 2713 
C 1818 2713 2112 2308 2118 1600 
L 589 1600 
z
" transform="scale(0.015625)"/>
       <path id="CMR17-61" d="M 2304 1656 
C 2304 2048 2304 2275 2035 2534 
C 1798 2751 1523 2816 1306 2816 
C 800 2816 435 2408 435 1977 
C 435 1740 627 1728 666 1728 
C 749 1728 896 1779 896 1958 
C 896 2118 774 2188 666 2188 
C 640 2188 608 2182 589 2176 
C 723 2594 1069 2713 1293 2713 
C 1613 2713 1965 2421 1965 1875 
L 1965 1632 
C 1587 1619 1133 1568 774 1373 
C 371 1147 256 822 256 576 
C 256 77 832 -64 1171 -64 
C 1523 -64 1850 135 1990 505 
C 2003 219 2182 -39 2464 -39 
C 2598 -39 2938 51 2938 563 
L 2938 926 
L 2822 926 
L 2822 557 
C 2822 161 2650 109 2566 109 
C 2304 109 2304 446 2304 732 
L 2304 1656 
z
M 1965 887 
C 1965 323 1568 38 1216 38 
C 896 38 646 278 646 576 
C 646 771 730 1114 1101 1322 
C 1408 1497 1760 1523 1965 1536 
L 1965 887 
z
" transform="scale(0.015625)"/>
       <path id="CMR17-6e" d="M 2656 1954 
C 2656 2282 2592 2816 1837 2816 
C 1331 2816 1069 2424 973 2166 
L 966 2166 
L 966 2816 
L 211 2745 
L 211 2578 
C 589 2578 646 2540 646 2231 
L 646 443 
C 646 198 621 166 211 166 
L 211 0 
C 365 12 646 12 813 12 
C 979 12 1267 12 1421 0 
L 1421 166 
C 1011 166 986 192 986 443 
L 986 1678 
C 986 2269 1344 2713 1792 2713 
C 2266 2713 2317 2289 2317 1980 
L 2317 443 
C 2317 198 2291 166 1882 166 
L 1882 0 
C 2035 12 2317 12 2483 12 
C 2650 12 2938 12 3091 0 
L 3091 166 
C 2682 166 2656 192 2656 443 
L 2656 1954 
z
" transform="scale(0.015625)"/>
      </defs>
      <use xlink:href="#CMR17-6d" transform="scale(0.996264)"/>
      <use xlink:href="#CMR17-65" transform="translate(76.91959 0) scale(0.996264)"/>
      <use xlink:href="#CMR17-61" transform="translate(117.40525 0) scale(0.996264)"/>
      <use xlink:href="#CMR17-6e" transform="translate(163.095727 0) scale(0.996264)"/>
     </g>
    </g>
    <g id="line2d_16">
     <path d="M 195.874216 87.579637 
L 209.874216 87.579637 
L 223.874216 87.579637 
" style="fill: none; stroke-dasharray: 3.7,1.6; stroke-dashoffset: 0; stroke: #000000"/>
    </g>
    <g id="text_17">
     <!-- $0.5\cdot N^{-0.502}$ -->
     <g transform="translate(235.074216 92.479637) scale(0.14 -0.14)">
      <defs>
       <path id="CMMI12-3a" d="M 1178 307 
C 1178 492 1024 620 870 620 
C 685 620 557 467 557 313 
C 557 128 710 0 864 0 
C 1050 0 1178 153 1178 307 
z
" transform="scale(0.015625)"/>
       <path id="CMSY10-1" d="M 1229 1619 
C 1229 1804 1075 1958 890 1958 
C 704 1958 550 1804 550 1619 
C 550 1433 704 1280 890 1280 
C 1075 1280 1229 1433 1229 1619 
z
" transform="scale(0.015625)"/>
      </defs>
      <use xlink:href="#CMR17-30" transform="scale(0.996264)"/>
      <use xlink:href="#CMMI12-3a" transform="translate(45.690477 0) scale(0.996264)"/>
      <use xlink:href="#CMR17-35" transform="translate(72.787654 0) scale(0.996264)"/>
      <use xlink:href="#CMSY10-1" transform="translate(140.617338 0) scale(0.996264)"/>
      <use xlink:href="#CMMI12-4e" transform="translate(190.43063 0) scale(0.996264)"/>
      <use xlink:href="#CMSY10-0" transform="translate(278.952403 36.153639) scale(0.697382)"/>
      <use xlink:href="#CMR17-30" transform="translate(333.193396 36.153639) scale(0.697382)"/>
      <use xlink:href="#CMMI12-3a" transform="translate(365.176578 36.153639) scale(0.697382)"/>
      <use xlink:href="#CMR17-35" transform="translate(384.144511 36.153639) scale(0.697382)"/>
      <use xlink:href="#CMR17-30" transform="translate(416.127693 36.153639) scale(0.697382)"/>
      <use xlink:href="#CMR17-32" transform="translate(448.110875 36.153639) scale(0.697382)"/>
     </g>
    </g>
   </g>
  </g>
 </g>
 <defs>
  <clipPath id="p8c1b1aa7a6">
   <rect x="33.85031" y="7.2" width="303.10969" height="293.96419"/>
  </clipPath>
 </defs>
</svg>
